<svg width="40" height="40"  viewBox="0 0 225 225" fill="#09a59a" xmlns="http://www.w3.org/2000/svg">
    <path d="M225 112.9a21.1 21.1 0 0 0-3 4.5c-3.7 6.3-7.2 12.7-11 19-2.2 3.8-4.5 7.6-6.5 11.5s-4.5 7.6-6.8 11.4c-1.2 2-2.2 4.3-3.5 6.4-2.6 4.4-5 8.9-7.8 13.2-1.6 2.4-2.6 5.2-4 7.6-2.3 4-4.8 7.8-7.1 11.7-1.5 2.5-2.7 5.1-4 7.6l-2.4 3.5H57l-1.7-2.5c-2.7-4.4-5.2-9-8-13.5-1.8-2.8-3-6-4.7-8.8-3-4.7-5.3-9.6-8.3-14.2-2.3-3.5-3.9-7.4-6.6-10.8-1.3-1.6-2-3.9-3-5.7-2.8-4.5-5.5-9-8-13.6-2.2-3.9-4.6-7.5-6.6-11.5-2.3-4.4-5-8.6-7.6-12.9l-2-4c1.2-2.2 2.1-4.3 3.4-6.2 2-3 3.5-6 5.3-9L16 85.2c1.3-2 2.3-4.3 3.5-6.4 2.7-4.4 5.1-8.9 7.9-13.2 1.5-2.4 2.6-5.2 4-7.6 2.3-4 5-7.7 7-11.7 2-3.7 4.3-7.2 6.3-10.8C48 29.5 51.2 23.6 55 18a26 26 0 0 0 1.5-3h113c1.4 2.7 2.6 5.5 4.3 8 1.9 2.5 3.2 5.4 4.9 8 3.3 5.3 6 11 9.5 16.3 2.4 3.6 4.1 7.8 6.4 11.5 3.5 5.5 6.3 11.4 10 16.8a54.1 54.1 0 0 1 3.3 6c3 6 6.6 11.5 9.9 17.3 2.3 4 4.1 8.3 7.3 11.7Zm-79.3-1c-5.7-9.5-10.7-19.1-16.4-28.2H96.5c-5.9 9-10.7 18.8-16.4 28 1.8 3.3 3.2 6.7 5.3 9.8 2.7 4 4.8 8.2 7.3 12.3l3.9 6.6H129l6.2-10.4c3.5-6 7-12 10.4-18.2Zm34-59.4h-65.3c-4.3 8.2-9.6 15.8-13.7 24.4h65c1.8-2.8 3.6-5.4 5.1-8.1l4.3-8c1.5-2.6 3.6-5 4.6-8.3ZM109 48.2c-4.8-7.8-9.1-16-14.2-24-2 3.4-4 6.5-5.7 9.6-1.4 2.5-2.4 5.3-4 7.7-3 4.5-5.5 9.1-8.1 13.8l-3.4 6-6.9 11.4L62 81c1.5 2.2 3.1 4.5 4.5 7l7.6 13.6c.6 1.1 1 2.6 2.5 3.2 1.7-3.3 3.1-6.7 5.1-9.6 2.9-4.3 5-9 7.8-13.3 2.4-3.7 4-7.8 6.5-11.5s4.2-7.2 6.4-10.8c2.3-3.7 4.4-7.6 6.6-11.4ZM28.2 83.8c1.5 3 2.8 5.6 4.3 8.1 2.2 3.6 4.2 7.3 6.4 10.8 3.1 5 6 10 8.8 15.1 3.3 5.7 6.7 11.4 9.9 17.2l3 5.4c8.7.4 24.6.3 27.7-.3a6.8 6.8 0 0 0-.4-1c-2.6-4.4-5.4-8.7-7.8-13.2-3.2-5.8-6.7-11.4-9.9-17.2-1-2-2-4.2-3.2-6.1-2.7-4.3-5.2-8.6-7.7-13L56 83.9ZM198 140.4l-9-15.7-3.4-6-7-11.7c-1.3-2.4-2.3-5-3.9-7.3-3-4.3-5.2-9-8-13.5L165 84h-27.5a52.6 52.6 0 0 0 2.6 5c2.8 4.4 5.2 9 7.8 13.6l6.4 11.1c2.2 3.7 4.7 7.6 6.8 11.4 1.4 2.4 2.8 4.9 4.3 7.2 1.6 2.7 3 5.5 4.5 8.2Zm-34.3 2.6a7491 7491 0 0 1-14-24.2c-2 3.3-4.2 6.5-5.9 10-2 4-4.4 7.6-6.5 11.4-2.5 4.6-5.3 9-8 13.6-1 1.8-1.9 4-3 5.8-1.3 2.3-3 4.4-4.3 6.8l-3.8 7.3a8.4 8.4 0 0 1-1.5 1.6l3 4.8c3 6 7 11.4 9.8 17.6.2.6 1 .9 1.7 1.4 1.7-2.8 3.3-5.3 4.8-8 2.1-3.8 4-7.8 6.4-11.5s4.5-7.6 6.7-11.4l7.4-13c2.3-4.1 4.5-8.4 7.2-12.2ZM46.6 178l14.1 24.6h63l.3-.3a3.5 3.5 0 0 0 .2-.4L110.3 178Zm78.7-30.6H59.5l-3.8 6.5c-2.5 4.3-4.7 8.8-7.6 13a27.5 27.5 0 0 0-2 4.1h65.3c4.7-7.3 9-15.3 13.9-23.6Zm39.8 55 .8-1.5 4-7.2c2.4-4 4.9-7.7 7.2-11.7 1.4-2.5 2.4-5.2 4-7.6 2.9-4.2 5-9 7.8-13.2 1.6-2.3 2.6-5 4.2-7.2a73 73 0 0 0 3.8-6.6h-28l-4 7.2c-2.3 3.9-4.8 7.7-7 11.6-1.5 2.5-2.5 5.3-4 7.7-3 4.3-5.4 9-8.1 13.4l-4 7-4.6 8Zm52.2-90.5a60.5 60.5 0 0 0-3.6-7c-4.4-6.3-7.7-13.3-11.8-19.8-2.8-4.3-4.9-9.1-7.6-13.5-1.2-1.9-2.1-3.9-3.3-5.8l-5.5-9-13.7 23.5a16.4 16.4 0 0 0 .8 2.2c1.4 2.7 2.7 5.4 4.2 8 2.2 3.8 4.7 7.5 6.8 11.3q3.6 6.4 7.4 12.6a354.3 354.3 0 0 1 12.3 21.9c5-8.7 9.8-16.3 14-24.4ZM56.6 77a72.2 72.2 0 0 1 3.5-6.5c2.8-4 5-8.4 7.4-12.7 2-3.5 4.2-7 6.1-10.5C76 43 78.6 39 81 34.6a53 53 0 0 1 4-7c1.4-1.8 2-4 3.4-6H60.8a7.7 7.7 0 0 0-1.6 1.9c-1.9 4.1-4.6 7.8-6.6 11.8S48.2 43 46 46.8c-2 3.6-4.2 7.3-6.4 10.8-2.8 4.6-5.3 9.3-8.2 13.8a38.6 38.6 0 0 0-2.5 5.4Zm-16.2 90a86.5 86.5 0 0 0 4.5-7.5c1.1-2.4 2.7-4.6 4-7l4.5-8.1a3 3 0 0 0-.2-3.7c-2.3-3.5-4.4-7-6.4-10.8-2.3-4.4-4.8-8.7-7.2-13l-8.1-13.8-3.4-6-4.8-7.8-.8-1.7-14 24.1 3.7 6.9c2 4 5 7.5 6.7 11.8 4.5 6.2 7.7 13.3 11.8 19.7 3.4 5.4 6.3 11 9.7 17Zm61.2-145.3 13.8 23.8h62.9l.3-.2a2.3 2.3 0 0 0 .2-.4l-13.4-23.2Z"/>
</svg>
