
<svg viewBox="180 85 90 90" xmlns="http://www.w3.org/2000/svg">
    <rect x="1186.001" y="814.211" width="58.939" height="61.77" rx="1.357" stroke="#834df0" style="stroke-width: 0.904382; transform-origin: 1215.47px 845.096px;" transform="matrix(0.990123093128, 0.140199005604, -0.375635057688, 0.956786096096, -990.983942396477, -714.597435891724)"/>
    <path d="M 205.03 128.412 L 217.982 119.723 L 213.147 107.568 M 216.509 136.43 L 229.995 139.054" stroke-linecap="round" style="stroke-dasharray: 2; stroke-miterlimit: 30; stroke: rgb(23, 165, 154); transform-origin: 225.151px 125.381px;"/>
    <path fill="#09a59a" stroke="#fff" stroke-miterlimit="10" d="M 206.344 133.26 C 206.785 137.749 206.633 141.084 202.996 141.51 C 199.359 141.936 198.546 138.54 198.121 134.224 C 197.697 129.907 197.832 126.4 201.469 125.974 C 205.106 125.548 205.92 128.944 206.344 133.26 Z M 212.511 132.538 C 212.121 128.568 211.662 123.907 208.861 121.441 C 207.285 120.053 204.986 119.45 202.615 119.727 C 200.085 120.024 198.254 120.937 196.877 123.194 L 195.655 110.764 L 189.488 111.486 L 193.119 148.429 L 199.129 147.725 L 198.874 145.136 C 200.817 147.005 202.799 147.645 205.33 147.349 C 207.701 147.071 209.831 145.949 211.1 144.228 C 213.376 141.342 212.918 136.681 212.511 132.538 Z" style="stroke-linejoin: round; transform-origin: 203.326px 128.917px;"/>
    <path d="M 245.892 129.537 L 236.216 119.914 L 247.519 109.811 M 229.466 134.988 L 213.563 135.348" stroke-linecap="round" style="stroke-dasharray: 2; stroke-miterlimit: 30; stroke: rgb(32, 165, 154); transform-origin: 232.241px 122.705px;"/>
    <path fill="#000" stroke="#fff" stroke-miterlimit="10" d="M 250.438 139.478 C 248.336 142.313 245.964 144.683 243.121 142.171 C 240.278 139.658 241.909 136.632 244.011 133.797 C 246.112 130.964 248.361 128.484 251.327 131.106 C 254.17 133.618 252.539 136.645 250.438 139.478 Z M 247.552 154.13 L 262.663 133.754 L 257.967 129.603 L 256.466 131.627 C 256.307 128.805 255.448 126.929 253.47 125.181 C 251.616 123.542 249.385 122.687 247.372 122.919 C 244.017 123.303 241.892 125.894 239.19 129.537 C 236.488 133.18 234.51 136.123 234.962 139.652 C 235.173 141.85 236.28 143.944 238.134 145.584 C 239.988 147.222 241.872 147.993 244.309 147.467 L 242.708 149.626 C 241.107 151.785 238.516 153.07 235.55 150.448 C 233.943 149.028 233.231 147.504 232.919 145.441 L 227.451 146.193 C 227.827 150.1 229.528 152.497 232.495 155.119 C 237.71 159.952 243.849 159.123 247.552 154.13 Z" style="stroke-linejoin: round; transform-origin: 249.496px 141.025px;"/>
</svg>