<svg version="1.1" id="Layer_1" xmlns="http://www.w3.org/2000/svg" xmlns:xlink="http://www.w3.org/1999/xlink" x="0px" y="0px"
	 width="24" viewBox="0 0 64 64" enable-background="new 0 0 64 64" xml:space="preserve">
<path fill="#000000" opacity="1.000000" stroke="none" 
	d="
M37.000000,1.000000 
	C37.000000,1.000000 37.500000,1.000000 37.815498,1.324888 
	C38.134621,2.134276 38.138241,2.618777 37.830971,3.038241 
	C36.741371,4.645758 35.962666,6.318311 35.103645,8.355841 
	C33.787426,11.480927 31.596607,14.221025 34.816757,17.333099 
	C34.496246,17.777475 34.207222,17.963934 33.581291,18.208336 
	C31.241682,20.553509 29.238979,22.840738 26.846363,25.022242 
	C24.894321,25.600386 23.332193,26.284252 21.396242,26.991852 
	C19.664106,26.903439 17.942911,26.202965 17.009048,26.778969 
	C12.487972,29.567575 9.346060,28.210369 6.931151,23.768330 
	C7.361307,23.008215 7.687989,22.526358 8.421448,22.026093 
	C11.259271,22.182018 13.101775,21.765846 13.071970,18.651842 
	C13.061887,17.598358 13.612348,15.738168 14.204797,15.608459 
	C18.510435,14.665787 16.717701,11.493317 16.849113,8.676551 
	C15.558686,7.398159 14.287938,6.475608 13.251852,5.723420 
	C13.906952,3.953368 14.453476,2.476684 15.000000,1.000000 
	C20.688040,1.000000 26.376081,1.000000 32.595188,1.310804 
	C34.417503,1.414405 35.708752,1.207202 37.000000,1.000000 
z"/>
<path fill="#000000" opacity="1.000000" stroke="none" 
	d="
M46.000000,1.000000 
	C52.245983,1.000000 58.491962,1.000000 65.000000,1.000000 
	C65.000000,5.347133 65.000000,9.699439 64.597702,14.528274 
	C62.465443,16.323566 60.704479,17.604359 59.020412,18.979336 
	C58.323608,19.548246 57.791550,20.318933 57.138107,20.676754 
	C57.107075,19.923878 57.122494,19.492100 57.402977,18.823351 
	C57.524693,14.360419 56.488117,10.657088 51.969288,8.545851 
	C50.313946,7.741284 48.695362,7.427804 47.134930,6.931496 
	C44.151318,5.982533 41.200798,4.929516 38.635441,3.737734 
	C41.356224,2.703857 43.678112,1.851929 46.000000,1.000000 
z"/>
<path fill="#784B32" opacity="1.000000" stroke="none" 
	d="
M26.000000,65.000000 
	C24.933481,65.000000 23.866964,65.000000 22.211964,64.722977 
	C14.748990,61.963966 7.874495,59.481983 1.000000,57.000000 
	C1.000000,55.611111 1.000000,54.222221 1.350550,52.285698 
	C2.109692,51.076321 2.751523,50.459736 2.889760,49.745663 
	C3.940579,44.317558 4.762808,43.997738 9.129946,47.083626 
	C11.652693,48.866234 14.371904,50.370808 17.166256,52.282433 
	C18.551804,54.363476 19.773788,56.162609 21.039700,58.253204 
	C21.389999,59.031563 21.696373,59.518463 22.159298,60.278950 
	C23.217588,61.696117 24.119328,62.839691 25.227720,64.106087 
	C25.677286,64.446053 25.865829,64.703087 26.000000,65.000000 
z"/>
<path fill="#56E6D1" opacity="1.000000" stroke="none" 
	d="
M6.827678,24.046589 
	C9.346060,28.210369 12.487972,29.567575 17.009048,26.778969 
	C17.942911,26.202965 19.664106,26.903439 21.274183,27.327564 
	C18.428673,28.718891 15.260241,29.638453 12.274476,30.968180 
	C11.289788,31.406715 10.776991,32.904835 10.046915,34.231731 
	C11.108122,35.232437 12.230850,35.844078 13.218620,36.626175 
	C14.502266,37.642540 16.487822,38.680073 16.663256,39.921585 
	C16.824118,41.059994 14.982100,42.481419 13.669418,43.753090 
	C11.520715,42.277191 9.536207,41.003372 7.972992,39.334854 
	C5.500289,36.695580 3.309874,33.791828 1.000000,31.000000 
	C1.000000,29.285643 1.000000,27.571283 1.301334,25.566212 
	C2.449785,25.494307 3.296902,25.713118 4.476675,25.944130 
	C5.215946,25.296654 5.622561,24.636971 6.013701,23.990269 
	C5.998228,24.003250 6.036445,24.014551 6.233881,24.031742 
	C6.431318,24.048933 6.827678,24.046589 6.827678,24.046589 
z"/>
<path fill="#B5916C" opacity="1.000000" stroke="none" 
	d="
M26.464651,65.000000 
	C25.865829,64.703087 25.677286,64.446053 25.421494,63.830978 
	C26.946123,63.568233 28.483635,63.703415 30.424524,63.886902 
	C35.782215,62.746822 40.736526,61.558434 46.832607,60.096169 
	C42.747959,58.336643 39.928699,57.122204 37.405571,55.659187 
	C42.488834,54.512634 47.275963,53.614658 52.476509,52.774712 
	C55.695679,53.201233 58.501431,53.569733 61.550560,54.050827 
	C62.230087,54.472645 62.666245,54.781864 63.025269,55.392059 
	C59.758587,56.606445 56.615368,57.893105 53.362560,58.296860 
	C51.327728,58.549435 49.171280,57.531147 49.567253,60.997868 
	C47.477978,61.521603 45.694443,61.868187 44.058411,62.562397 
	C42.619846,63.172817 41.346382,64.172325 40.000000,65.000000 
	C35.643101,65.000000 31.286201,65.000000 26.464651,65.000000 
z"/>
<path fill="#8A5837" opacity="1.000000" stroke="none" 
	d="
M1.000000,31.468533 
	C3.309874,33.791828 5.500289,36.695580 7.972992,39.334854 
	C9.536207,41.003372 11.520715,42.277191 14.030479,43.804924 
	C15.828587,44.208488 16.912476,44.535168 17.631987,44.925880 
	C15.995108,45.278881 14.722609,45.567856 13.450109,45.856827 
	C13.457723,46.220715 13.465335,46.584602 13.472947,46.948486 
	C15.667113,47.815128 17.861279,48.681770 19.875198,49.826744 
	C18.797533,50.736889 17.900112,51.368706 17.002693,52.000519 
	C14.371904,50.370808 11.652693,48.866234 9.129946,47.083626 
	C4.762808,43.997738 3.940579,44.317558 2.889760,49.745663 
	C2.751523,50.459736 2.109692,51.076321 1.350550,51.869030 
	C1.000000,45.312355 1.000000,38.624710 1.000000,31.468533 
z"/>
<path fill="#4DD2BB" opacity="1.000000" stroke="none" 
	d="
M63.102398,55.091084 
	C62.666245,54.781864 62.230087,54.472645 61.527252,53.641563 
	C60.876503,51.749443 60.172325,50.381321 60.163139,49.008549 
	C60.120678,42.662743 60.271458,36.315643 60.740044,29.961054 
	C62.418056,29.968733 63.709030,29.984365 65.000000,30.000000 
	C65.000000,37.687576 65.000000,45.375153 64.762833,53.607452 
	C64.223602,54.326241 64.012566,54.576939 63.692673,54.941071 
	C63.492794,54.977871 63.102398,55.091084 63.102398,55.091084 
z"/>
<path fill="#5CEED7" opacity="1.000000" stroke="none" 
	d="
M1.000000,17.000000 
	C1.000000,11.771613 1.000000,6.543227 1.000000,1.000000 
	C3.664834,1.000000 6.341369,1.000000 9.333007,1.233013 
	C9.739737,2.982545 9.831363,4.499064 9.707987,6.284853 
	C9.309295,7.685034 9.125604,8.815947 8.761233,10.163659 
	C8.431009,10.920458 8.281466,11.460456 7.890380,12.213568 
	C7.545133,17.022451 2.481596,14.407455 1.000000,17.000000 
z"/>
<path fill="#51321C" opacity="1.000000" stroke="none" 
	d="
M1.000000,57.494732 
	C7.874495,59.481983 14.748990,61.963966 21.811741,64.722977 
	C15.120220,65.000000 8.240440,65.000000 1.000000,65.000000 
	C1.000000,62.675514 1.000000,60.332493 1.000000,57.494732 
z"/>
<path fill="#39BB9B" opacity="1.000000" stroke="none" 
	d="
M8.131924,12.000454 
	C8.281466,11.460456 8.431009,10.920458 9.001480,9.990117 
	C9.589269,8.405045 9.756128,7.210314 9.922989,6.015584 
	C9.831363,4.499064 9.739737,2.982545 9.824055,1.233013 
	C11.388889,1.000000 12.777778,1.000000 14.583334,1.000000 
	C14.453476,2.476684 13.906952,3.953368 13.251852,5.723420 
	C14.287938,6.475608 15.558686,7.398159 16.492798,8.664118 
	C10.680987,11.628744 10.029140,17.262096 8.014671,22.044500 
	C7.687989,22.526358 7.361307,23.008215 6.931151,23.768330 
	C6.827678,24.046589 6.431318,24.048933 6.069871,23.704412 
	C6.051123,21.851316 6.411946,20.346577 6.732273,18.833265 
	C7.213713,16.558813 7.666788,14.278358 8.131924,12.000454 
z"/>
<path fill="#CAA37C" opacity="1.000000" stroke="none" 
	d="
M63.025269,55.392059 
	C63.102398,55.091084 63.492794,54.977871 63.760361,55.237976 
	C64.351952,55.998722 64.675972,56.499359 65.000000,57.000000 
	C65.000000,57.750000 65.000000,58.500000 64.635139,59.759392 
	C59.533066,61.369675 54.795856,62.470562 50.046120,63.137871 
	C50.001431,62.126801 49.969265,61.549313 49.937103,60.971821 
	C49.171280,57.531147 51.327728,58.549435 53.362560,58.296860 
	C56.615368,57.893105 59.758587,56.606445 63.025269,55.392059 
z"/>
<path fill="#4CD6BE" opacity="1.000000" stroke="none" 
	d="
M7.890380,12.213568 
	C7.666788,14.278358 7.213713,16.558813 6.732273,18.833265 
	C6.411946,20.346577 6.051123,21.851316 5.872435,23.687222 
	C6.036445,24.014551 5.998228,24.003250 5.727466,24.055355 
	C5.019142,24.715616 4.581581,25.323772 4.144019,25.931927 
	C3.296902,25.713118 2.449785,25.494307 1.301334,25.137749 
	C1.000000,22.629442 1.000000,20.258884 1.000000,17.444164 
	C2.481596,14.407455 7.545133,17.022451 7.890380,12.213568 
z"/>
<path fill="#5BEED6" opacity="1.000000" stroke="none" 
	d="
M57.184563,20.997852 
	C57.791550,20.318933 58.323608,19.548246 59.020412,18.979336 
	C60.704479,17.604359 62.465443,16.323566 64.597702,15.002401 
	C65.000000,17.700014 65.000000,20.400026 64.599541,23.549370 
	C62.459618,24.338675 60.720158,24.678646 58.729156,24.831623 
	C58.257439,24.058889 58.037254,23.473150 57.793629,22.652237 
	C57.594048,22.125437 57.337448,21.954407 57.029156,21.673927 
	C57.057926,21.443888 57.184563,20.997852 57.184563,20.997852 
z"/>
<path fill="#3E2614" opacity="1.000000" stroke="none" 
	d="
M50.058643,63.571449 
	C54.795856,62.470562 59.533066,61.369675 64.635139,60.134392 
	C65.000000,61.632488 65.000000,63.264973 65.000000,65.000000 
	C59.647255,65.000000 54.294079,65.000000 48.531353,64.734779 
	C48.767414,64.170189 49.413029,63.870819 50.058643,63.571449 
z"/>
<path fill="#6EEFDB" opacity="1.000000" stroke="none" 
	d="
M58.980694,25.018620 
	C60.720158,24.678646 62.459618,24.338675 64.599541,23.999352 
	C65.000000,25.714357 65.000000,27.428717 65.000000,29.571537 
	C63.709030,29.984365 62.418056,29.968733 60.599739,29.750446 
	C60.022301,29.386816 59.972214,29.225843 59.964745,28.713037 
	C59.665142,27.247009 59.322918,26.132814 58.980694,25.018620 
z"/>
<path fill="#C2946B" opacity="1.000000" stroke="none" 
	d="
M50.046120,63.137871 
	C49.413029,63.870819 48.767414,64.170189 48.060898,64.734779 
	C45.629444,65.000000 43.258884,65.000000 40.444168,65.000000 
	C41.346382,64.172325 42.619846,63.172817 44.058411,62.562397 
	C45.694443,61.868187 47.477978,61.521603 49.567253,60.997868 
	C49.969265,61.549313 50.001431,62.126801 50.046120,63.137871 
z"/>
<path fill="#5EEDD8" opacity="1.000000" stroke="none" 
	d="
M45.555836,1.000000 
	C43.678112,1.851929 41.356224,2.703857 38.623962,3.532993 
	C38.213585,3.510200 38.141869,3.103277 38.141869,3.103277 
	C38.138241,2.618777 38.134621,2.134276 38.065498,1.324888 
	C40.370556,1.000000 42.741116,1.000000 45.555836,1.000000 
z"/>
<path fill="#62EED7" opacity="1.000000" stroke="none" 
	d="
M36.600006,1.000000 
	C35.708752,1.207202 34.417503,1.414405 33.063126,1.310804 
	C34.066669,1.000000 35.133339,1.000000 36.600006,1.000000 
z"/>
<path fill="#B5916C" opacity="1.000000" stroke="none" 
	d="
M65.000000,56.625000 
	C64.675972,56.499359 64.351952,55.998722 63.960236,55.201176 
	C64.012566,54.576939 64.223602,54.326241 64.762833,54.076088 
	C65.000000,54.750000 65.000000,55.500000 65.000000,56.625000 
z"/>
<path fill="#A17653" opacity="1.000000" stroke="none" 
	d="
M10.048424,33.918465 
	C10.776991,32.904835 11.289788,31.406715 12.274476,30.968180 
	C15.260241,29.638453 18.428673,28.718891 21.648006,27.303833 
	C23.332193,26.284252 24.894321,25.600386 26.756931,25.378153 
	C27.045620,26.569315 27.033825,27.298843 27.026886,28.420860 
	C27.047977,31.495161 27.603136,33.635418 31.004896,33.634300 
	C33.682945,33.633419 36.361076,33.903008 39.220715,34.334408 
	C41.258667,36.103451 43.115082,37.590542 45.163467,39.281898 
	C45.915890,39.975876 46.476341,40.465595 46.735706,41.192810 
	C42.926514,41.639389 39.418404,41.848473 35.726353,42.192524 
	C35.309845,42.531254 35.121372,42.769852 34.984344,43.015343 
	C34.991695,42.987392 35.049187,42.993393 34.706673,43.041672 
	C33.043674,43.451717 31.645985,44.282902 30.418200,44.080982 
	C27.549570,43.609215 24.762529,42.641354 21.930275,41.510063 
	C20.367226,36.437599 18.477879,32.319687 12.176475,34.863922 
	C11.675960,35.066002 10.767369,34.257385 10.048424,33.918465 
z"/>
<path fill="#D5D8B9" opacity="1.000000" stroke="none" 
	d="
M27.022032,28.028370 
	C27.033825,27.298843 27.045620,26.569315 27.146845,25.483877 
	C29.238979,22.840738 31.241682,20.553509 33.598400,18.566305 
	C34.610256,20.249922 35.268097,21.633514 36.064972,23.218060 
	C36.418434,23.677460 36.685905,23.856802 37.076683,24.192478 
	C37.146950,24.427917 37.351131,24.874893 37.119457,25.052952 
	C36.646713,25.754505 36.405640,26.278000 36.110680,26.869026 
	C36.056786,26.936560 35.948933,27.071571 35.660789,27.024527 
	C34.664860,26.362835 33.957069,25.748190 33.222370,25.110176 
	C32.764332,26.281294 32.276077,27.529675 32.081032,28.028370 
	C29.943068,28.028370 28.482550,28.028370 27.022032,28.028370 
z"/>
<path fill="#59EBD4" opacity="1.000000" stroke="none" 
	d="
M8.421448,22.026093 
	C10.029140,17.262096 10.680987,11.628744 16.512478,9.019958 
	C16.717701,11.493317 18.510435,14.665787 14.204797,15.608459 
	C13.612348,15.738168 13.061887,17.598358 13.071970,18.651842 
	C13.101775,21.765846 11.259271,22.182018 8.421448,22.026093 
z"/>
<path fill="#B68962" opacity="1.000000" stroke="none" 
	d="
M37.830971,3.038241 
	C38.141869,3.103277 38.213585,3.510200 38.225067,3.714942 
	C41.200798,4.929516 44.151318,5.982533 47.134930,6.931496 
	C48.695362,7.427804 50.313946,7.741284 51.825577,8.706320 
	C51.564381,9.506986 51.339096,9.680532 50.976723,9.537038 
	C50.255108,9.845968 49.625801,10.413802 48.679298,10.954466 
	C47.593231,10.586031 46.824368,10.244768 45.941101,9.784418 
	C45.518658,9.479073 45.218552,9.498991 44.598679,9.717932 
	C43.833992,9.717104 43.397015,9.723428 42.708736,9.547294 
	C41.639206,9.196441 40.820976,9.028046 39.905777,8.560827 
	C38.267193,8.171624 36.725574,8.081244 35.183960,7.990864 
	C35.962666,6.318311 36.741371,4.645758 37.830971,3.038241 
z"/>
<path fill="#AE835F" opacity="1.000000" stroke="none" 
	d="
M35.103645,8.355841 
	C36.725574,8.081244 38.267193,8.171624 39.767105,8.872182 
	C37.706692,11.822810 36.816925,14.270099 38.596558,17.012962 
	C37.069439,17.036060 35.958847,17.055620 34.848251,17.075178 
	C31.596607,14.221025 33.787426,11.480927 35.103645,8.355841 
z"/>
<path fill="#926F52" opacity="1.000000" stroke="none" 
	d="
M34.816757,17.333099 
	C35.958847,17.055620 37.069439,17.036060 38.591591,17.010006 
	C39.003143,17.003510 39.013000,17.012913 39.007290,17.342676 
	C38.998581,18.112524 38.995579,18.552608 38.662323,19.013744 
	C37.686642,19.597486 37.041222,20.160181 36.395802,20.722874 
	C36.609039,20.937119 36.822281,21.151363 37.035522,21.365608 
	C37.692619,20.579531 38.349716,19.793451 39.264690,19.125738 
	C40.028465,19.504045 40.534363,19.763988 41.164589,20.330582 
	C41.130909,22.165152 40.972904,23.693069 40.466721,25.203602 
	C39.196068,25.082443 38.273602,24.978668 37.351131,24.874893 
	C37.351131,24.874893 37.146950,24.427917 36.930580,23.999592 
	C36.490711,23.330713 36.227955,23.145994 35.925941,23.017107 
	C35.268097,21.633514 34.610256,20.249922 33.935310,18.508362 
	C34.207222,17.963934 34.496246,17.777475 34.816757,17.333099 
z"/>
<path fill="#724E35" opacity="1.000000" stroke="none" 
	d="
M57.138107,20.676754 
	C57.184563,20.997852 57.057926,21.443888 56.980568,21.872499 
	C56.903206,22.301111 56.821194,22.700819 56.620621,22.775112 
	C56.420048,22.849407 56.028564,23.021851 55.772705,22.944588 
	C55.011951,23.570240 54.507061,24.273155 53.752365,25.167767 
	C52.364388,26.277502 51.226215,27.195543 49.745598,28.077663 
	C48.947208,28.023561 48.491261,28.005381 48.033180,27.664190 
	C47.358837,25.557276 46.686626,23.773367 46.073578,21.678661 
	C47.417721,20.902153 48.702694,20.436443 50.187500,19.848051 
	C50.640209,19.535740 50.852814,19.308437 51.350487,19.041967 
	C52.109009,19.026104 52.542179,19.011732 53.020992,19.199888 
	C53.152817,19.527178 53.214188,19.695986 53.332966,19.762905 
	C53.429684,19.817398 53.597244,19.760748 53.729759,19.734814 
	C54.866280,19.512379 56.001976,19.285719 57.137917,19.060322 
	C57.122494,19.492100 57.107075,19.923878 57.138107,20.676754 
z"/>
<path fill="#845F43" opacity="1.000000" stroke="none" 
	d="
M57.402977,18.823351 
	C56.001976,19.285719 54.866280,19.512379 53.729759,19.734814 
	C53.597244,19.760748 53.429684,19.817398 53.332966,19.762905 
	C53.214188,19.695986 53.152817,19.527178 52.942299,18.902351 
	C49.219612,16.146273 50.262196,12.947153 51.069031,9.795941 
	C51.339096,9.680532 51.564381,9.506986 51.888596,9.114835 
	C56.488117,10.657088 57.524693,14.360419 57.402977,18.823351 
z"/>
<path fill="#735037" opacity="1.000000" stroke="none" 
	d="
M17.166256,52.282433 
	C17.900112,51.368706 18.797533,50.736889 20.245861,49.947563 
	C21.552708,49.962368 22.308647,50.134682 23.330160,50.483852 
	C25.374945,51.336952 27.154154,52.013199 28.987289,52.976418 
	C29.074646,53.455173 29.108074,53.646954 28.861116,53.949921 
	C29.060869,57.320271 29.541006,60.579433 30.021145,63.838593 
	C28.483635,63.703415 26.946123,63.568233 25.214840,63.708160 
	C24.119328,62.839691 23.217588,61.696117 22.109602,59.990162 
	C21.600828,58.939102 21.298302,58.450420 20.995773,57.961742 
	C19.773788,56.162609 18.551804,54.363476 17.166256,52.282433 
M25.182232,57.543434 
	C25.182232,58.267433 25.182232,58.991432 25.182232,59.715431 
	C25.409052,59.700878 25.635872,59.686325 25.862694,59.671772 
	C25.761200,58.877598 25.659706,58.083427 25.182232,57.543434 
z"/>
<path fill="#8A5837" opacity="1.000000" stroke="none" 
	d="
M21.039700,58.253204 
	C21.298302,58.450420 21.600828,58.939102 21.953053,59.716572 
	C21.696373,59.518463 21.389999,59.031563 21.039700,58.253204 
z"/>
<path fill="#50DDC6" opacity="1.000000" stroke="none" 
	d="
M10.046915,34.231731 
	C10.767369,34.257385 11.675960,35.066002 12.176475,34.863922 
	C18.477879,32.319687 20.367226,36.437599 21.677048,41.672150 
	C21.275009,42.761719 21.114027,43.324848 20.661879,44.030746 
	C19.579264,44.402958 18.787815,44.632401 17.996367,44.861847 
	C16.912476,44.535168 15.828587,44.208488 14.383636,43.829975 
	C14.982100,42.481419 16.824118,41.059994 16.663256,39.921585 
	C16.487822,38.680073 14.502266,37.642540 13.218620,36.626175 
	C12.230850,35.844078 11.108122,35.232437 10.046915,34.231731 
M19.528805,39.503586 
	C19.528805,39.503586 19.484465,39.520859 19.528805,39.503586 
z"/>
<path fill="#1D503E" opacity="1.000000" stroke="none" 
	d="
M4.476675,25.944130 
	C4.581581,25.323772 5.019142,24.715616 5.742939,24.042376 
	C5.622561,24.636971 5.215946,25.296654 4.476675,25.944130 
z"/>
<path fill="#3A2312" opacity="1.000000" stroke="none" 
	d="
M59.922123,29.064869 
	C59.972214,29.225843 60.022301,29.386816 60.212692,29.758400 
	C60.271458,36.315643 60.120678,42.662743 60.163139,49.008549 
	C60.172325,50.381321 60.876503,51.749443 61.283875,53.528969 
	C58.501431,53.569733 55.695679,53.201233 52.381561,52.445435 
	C48.932152,50.713936 45.991100,49.369747 43.383743,47.929771 
	C45.467457,46.771370 47.217484,45.708763 49.251930,44.491085 
	C51.630634,40.306419 54.704712,36.462959 55.516533,32.189728 
	C56.194942,28.618727 57.442608,28.692150 59.922123,29.064869 
z"/>
<path fill="#8F6546" opacity="1.000000" stroke="none" 
	d="
M43.050053,48.025558 
	C45.991100,49.369747 48.932152,50.713936 51.968147,52.387405 
	C47.275963,53.614658 42.488834,54.512634 37.088623,55.538921 
	C34.030865,55.057732 31.586184,54.448231 29.141502,53.838730 
	C29.108074,53.646954 29.074646,53.455173 29.031548,52.643120 
	C31.030981,49.013031 33.040085,46.003212 35.049187,42.993393 
	C35.049187,42.993393 34.991695,42.987392 35.224354,42.999012 
	C35.457012,43.010632 35.933510,42.947708 36.061810,43.185677 
	C35.494728,46.074272 32.102833,48.769569 35.469051,50.817776 
	C38.403736,49.736881 40.726894,48.881218 43.050053,48.025558 
z"/>
<path fill="#5E4731" opacity="1.000000" stroke="none" 
	d="
M28.861116,53.949921 
	C31.586184,54.448231 34.030865,55.057732 36.792492,55.787498 
	C39.928699,57.122204 42.747959,58.336643 46.832607,60.096169 
	C40.736526,61.558434 35.782215,62.746822 30.424524,63.886902 
	C29.541006,60.579433 29.060869,57.320271 28.861116,53.949921 
z"/>
<path fill="#D1A174" opacity="1.000000" stroke="none" 
	d="
M17.631987,44.925880 
	C18.787815,44.632401 19.579264,44.402958 20.732304,44.394928 
	C21.750792,46.513233 22.407688,48.410114 23.064585,50.306999 
	C22.308647,50.134682 21.552708,49.962368 20.426105,49.669231 
	C17.861279,48.681770 15.667113,47.815128 13.472947,46.948486 
	C13.465335,46.584602 13.457723,46.220715 13.450109,45.856827 
	C14.722609,45.567856 15.995108,45.278881 17.631987,44.925880 
z"/>
<path fill="#4CD6BE" opacity="1.000000" stroke="none" 
	d="
M9.707987,6.284853 
	C9.756128,7.210314 9.589269,8.405045 9.182161,9.773317 
	C9.125604,8.815947 9.309295,7.685034 9.707987,6.284853 
z"/>
<path fill="#8D7659" opacity="1.000000" stroke="none" 
	d="
M59.964745,28.713037 
	C57.442608,28.692150 56.194942,28.618727 55.516533,32.189728 
	C54.704712,36.462959 51.630634,40.306419 49.251259,44.157799 
	C48.323044,42.971493 47.679916,41.963402 47.036793,40.955311 
	C46.476341,40.465595 45.915890,39.975876 45.486290,39.096184 
	C47.549362,38.165077 49.481583,37.623943 51.872662,36.954304 
	C50.484051,35.402092 49.542076,34.349129 48.938141,33.146210 
	C49.546799,31.368692 49.817421,29.741138 50.088043,28.113585 
	C51.226215,27.195543 52.364388,26.277502 53.890381,25.402426 
	C54.861660,24.637543 55.445114,23.829697 56.028564,23.021851 
	C56.028564,23.021851 56.420048,22.849407 56.867325,22.839615 
	C57.482090,22.849020 57.649578,22.868217 57.817070,22.887413 
	C58.037254,23.473150 58.257439,24.058889 58.729156,24.831623 
	C59.322918,26.132814 59.665142,27.247009 59.964745,28.713037 
z"/>
<path fill="#845F43" opacity="1.000000" stroke="none" 
	d="
M57.793625,22.652237 
	C57.649578,22.868217 57.482090,22.849020 57.067894,22.765320 
	C56.821194,22.700819 56.903206,22.301111 56.951797,22.102539 
	C57.337448,21.954407 57.594048,22.125437 57.793625,22.652237 
z"/>
<path fill="#A0AB8A" opacity="1.000000" stroke="none" 
	d="
M37.119457,25.052954 
	C38.273602,24.978668 39.196068,25.082443 40.719711,25.406433 
	C42.398708,26.152899 43.522530,26.604172 44.540211,27.228468 
	C45.397301,27.754250 46.131020,28.481148 46.883904,29.449671 
	C46.724800,30.205069 46.601151,30.629816 46.114937,31.054106 
	C43.514641,32.053249 41.276905,33.052856 39.039173,34.052460 
	C36.361076,33.903008 33.682945,33.633419 31.004896,33.634300 
	C27.603136,33.635418 27.047977,31.495161 27.026886,28.420860 
	C28.482550,28.028370 29.943068,28.028370 32.081032,28.028370 
	C32.276077,27.529675 32.764332,26.281294 33.222370,25.110176 
	C33.957069,25.748190 34.664860,26.362835 35.847328,27.227493 
	C36.854462,27.524166 37.386909,27.570829 37.919361,27.617493 
	C37.334431,27.345491 36.749500,27.073492 36.164570,26.801493 
	C36.405640,26.278000 36.646713,25.754505 37.119457,25.052954 
z"/>
<path fill="#A87752" opacity="1.000000" stroke="none" 
	d="
M46.735706,41.192810 
	C47.679916,41.963402 48.323044,42.971493 48.966835,44.312870 
	C47.217484,45.708763 45.467457,46.771370 43.383743,47.929771 
	C40.726894,48.881218 38.403736,49.736881 35.469051,50.817776 
	C32.102833,48.769569 35.494728,46.074272 36.058899,42.963295 
	C35.927692,42.502941 35.910297,42.057552 35.910297,42.057552 
	C39.418404,41.848473 42.926514,41.639389 46.735706,41.192810 
z"/>
<path fill="#C8976C" opacity="1.000000" stroke="none" 
	d="
M23.330160,50.483856 
	C22.407688,48.410114 21.750792,46.513233 21.023472,44.252167 
	C21.114027,43.324848 21.275009,42.761719 21.689219,42.036499 
	C24.762529,42.641354 27.549570,43.609215 30.418200,44.080982 
	C31.645985,44.282902 33.043674,43.451717 34.706673,43.041672 
	C33.040085,46.003212 31.030981,49.013031 28.977621,52.356144 
	C27.154154,52.013199 25.374945,51.336952 23.330160,50.483856 
z"/>
<path fill="#C2CAAA" opacity="1.000000" stroke="none" 
	d="
M39.220715,34.334408 
	C41.276905,33.052856 43.514641,32.053249 46.254642,31.338108 
	C47.371307,32.180439 47.985703,32.738304 48.600098,33.296169 
	C49.542076,34.349129 50.484051,35.402092 51.872662,36.954304 
	C49.481583,37.623943 47.549362,38.165077 45.294319,38.891922 
	C43.115082,37.590542 41.258667,36.103451 39.220715,34.334408 
z"/>
<path fill="#C8976C" opacity="1.000000" stroke="none" 
	d="
M35.726353,42.192524 
	C35.910297,42.057552 35.927692,42.502941 35.930603,42.725327 
	C35.933510,42.947708 35.457012,43.010632 35.217003,43.026962 
	C35.121372,42.769852 35.309845,42.531254 35.726353,42.192524 
z"/>
<path fill="#957456" opacity="1.000000" stroke="none" 
	d="
M36.064972,23.218060 
	C36.227955,23.145994 36.490711,23.330713 36.860313,23.764153 
	C36.685905,23.856802 36.418434,23.677460 36.064972,23.218060 
z"/>
<path fill="#916B4D" opacity="1.000000" stroke="none" 
	d="
M50.976723,9.537038 
	C50.262196,12.947153 49.219612,16.146273 52.896660,18.699825 
	C52.542179,19.011732 52.109009,19.026104 51.144783,19.156820 
	C50.356873,19.462450 50.148186,19.694973 49.987671,19.970736 
	C48.702694,20.436443 47.417721,20.902153 45.840942,21.486591 
	C44.709930,20.756210 43.870720,19.907099 43.022148,18.714905 
	C43.008522,17.915012 43.004261,17.458206 43.011971,16.745302 
	C43.031879,16.318474 43.039822,16.147743 43.231186,15.847282 
	C43.644680,15.520332 43.834003,15.289659 44.304173,15.150536 
	C49.224838,17.042612 47.477169,12.349403 48.996494,10.981636 
	C49.625801,10.413802 50.255108,9.845968 50.976723,9.537038 
z"/>
<path fill="#764F35" opacity="1.000000" stroke="none" 
	d="
M43.047768,15.977011 
	C43.039822,16.147743 43.031879,16.318474 42.641537,16.748257 
	C41.519482,16.998489 40.779827,16.989670 40.023392,16.607712 
	C40.991085,14.066298 41.975559,11.898025 42.960037,9.729752 
	C43.397015,9.723428 43.833992,9.717104 44.877335,9.785980 
	C45.674301,9.875291 45.864902,9.889399 46.055500,9.903505 
	C46.824368,10.244768 47.593231,10.586031 48.679298,10.954465 
	C47.477169,12.349403 49.224838,17.042612 44.108521,15.266445 
	C43.345863,15.448713 43.164696,15.688601 43.047768,15.977011 
z"/>
<path fill="#926F52" opacity="1.000000" stroke="none" 
	d="
M42.708733,9.547293 
	C41.975559,11.898025 40.991085,14.066298 39.766396,16.615746 
	C39.355118,17.002253 39.184059,17.007584 39.013000,17.012913 
	C39.013000,17.012913 39.003143,17.003510 39.008110,17.006466 
	C36.816925,14.270099 37.706692,11.822810 39.864075,9.171005 
	C40.820976,9.028046 41.639206,9.196441 42.708733,9.547293 
z"/>
<path fill="#926F52" opacity="1.000000" stroke="none" 
	d="
M45.941101,9.784418 
	C45.864902,9.889399 45.674301,9.875291 45.205040,9.793134 
	C45.218552,9.498991 45.518658,9.479073 45.941101,9.784418 
z"/>
<path fill="#746048" opacity="1.000000" stroke="none" 
	d="
M43.031513,19.057989 
	C43.870720,19.907099 44.709930,20.756210 45.781776,21.797390 
	C46.686626,23.773367 47.358837,25.557276 47.816505,27.820787 
	C47.374424,28.573269 47.146889,28.846144 46.919350,29.119019 
	C46.131020,28.481148 45.397301,27.754250 44.540211,27.228468 
	C43.522530,26.604172 42.398708,26.152899 41.067894,25.423817 
	C40.972904,23.693069 41.130909,22.165152 41.412674,20.209171 
	C42.034790,19.540070 42.533154,19.299028 43.031513,19.057989 
z"/>
<path fill="#957456" opacity="1.000000" stroke="none" 
	d="
M43.022148,18.714905 
	C42.533154,19.299028 42.034790,19.540070 41.288345,19.902519 
	C40.534363,19.763988 40.028465,19.504045 39.261261,19.122034 
	C38.999958,18.999964 38.992580,18.992693 38.992580,18.992693 
	C38.995579,18.552608 38.998581,18.112524 39.007290,17.342676 
	C39.184059,17.007584 39.355118,17.002253 39.783176,16.988886 
	C40.779827,16.989670 41.519482,16.998489 42.629570,17.004353 
	C43.004261,17.458206 43.008522,17.915012 43.022148,18.714905 
z"/>
<path fill="#957456" opacity="1.000000" stroke="none" 
	d="
M39.003387,19.003668 
	C38.349716,19.793451 37.692619,20.579531 37.035522,21.365608 
	C36.822281,21.151363 36.609039,20.937119 36.395802,20.722874 
	C37.041222,20.160181 37.686642,19.597486 38.662323,19.013744 
	C38.992580,18.992693 38.999958,18.999964 39.003387,19.003668 
z"/>
<path fill="#845F43" opacity="1.000000" stroke="none" 
	d="
M46.883904,29.449669 
	C47.146889,28.846144 47.374424,28.573269 47.818642,28.143795 
	C48.491261,28.005381 48.947208,28.023561 49.745598,28.077663 
	C49.817421,29.741138 49.546799,31.368692 48.938141,33.146210 
	C47.985703,32.738304 47.371307,32.180439 46.617207,31.338570 
	C46.601151,30.629816 46.724800,30.205069 46.883904,29.449669 
z"/>
<path fill="#845F43" opacity="1.000000" stroke="none" 
	d="
M55.772705,22.944590 
	C55.445114,23.829697 54.861660,24.637543 54.140190,25.210728 
	C54.507061,24.273155 55.011951,23.570240 55.772705,22.944590 
z"/>
<path fill="#845F43" opacity="1.000000" stroke="none" 
	d="
M50.187500,19.848051 
	C50.148186,19.694973 50.356873,19.462450 50.819435,19.158312 
	C50.852814,19.308437 50.640209,19.535740 50.187500,19.848051 
z"/>
<path fill="#5E4731" opacity="1.000000" stroke="none" 
	d="
M25.370222,57.416344 
	C25.659706,58.083427 25.761200,58.877598 25.862694,59.671772 
	C25.635872,59.686325 25.409052,59.700878 25.182232,59.715431 
	C25.182232,58.991432 25.182232,58.267433 25.370222,57.416344 
z"/>
<path fill="#56E6D1" opacity="1.000000" stroke="none" 
	d="
M19.506634,39.512222 
	C19.484465,39.520859 19.528805,39.503586 19.506634,39.512222 
z"/>
<path fill="#D5D8B9" opacity="1.000000" stroke="none" 
	d="
M36.110680,26.869026 
	C36.749500,27.073492 37.334431,27.345491 37.919361,27.617493 
	C37.386909,27.570829 36.854462,27.524166 36.135471,27.274538 
	C35.948933,27.071571 36.056786,26.936560 36.110680,26.869026 
z"/>
<path fill="#926F52" opacity="1.000000" stroke="none" 
	d="
M43.231186,15.847282 
	C43.164696,15.688601 43.345863,15.448713 43.786926,15.141440 
	C43.834003,15.289659 43.644680,15.520332 43.231186,15.847282 
z"/>
</svg>