
<svg width='48' height="48" viewBox="69 225 96 96" xmlns="http://www.w3.org/2000/svg">
    <rect x="1300.76" y="892.765" width="64.642" height="67.73" rx="1.357" stroke="#834df0" style="stroke-width: 2px; stroke-linejoin: round; stroke-linecap: round; transform-origin: 1333.08px 926.63px;" transform="matrix(0.964216113091, 0.26511695981, -0.472161054611, 0.907288014889, -1216.352881273629, -655.715635085575)"/>
    <path d="M 95.551 274.536 L 110.793 266.09 L 107.06 252.422 M 107.062 284.221 L 121.449 288.175" stroke="#834df0" style="stroke-width: 2px; stroke-linejoin: round; stroke-linecap: round; transform-origin: 114.1px 273.966px;"/>
    <path fill="#09a59a" stroke="#fff" stroke-miterlimit="10" d="M 108.813 270.996 C 109.295 275.94 109.129 279.614 105.159 280.084 C 101.189 280.553 100.3 276.811 99.837 272.057 C 99.374 267.302 99.521 263.438 103.492 262.969 C 107.462 262.499 108.35 266.241 108.813 270.996 Z M 115.546 270.2 C 115.12 265.826 114.62 260.692 111.561 257.975 C 109.841 256.447 107.332 255.782 104.742 256.088 C 101.98 256.415 99.982 257.421 98.478 259.906 L 97.145 246.214 L 90.412 247.01 L 94.376 287.705 L 100.937 286.93 L 100.659 284.078 C 102.779 286.136 104.944 286.842 107.706 286.515 C 110.295 286.209 112.62 284.973 114.006 283.077 C 116.491 279.899 115.99 274.764 115.546 270.2 Z" style="stroke-width: 2px; stroke-linejoin: round; stroke-linecap: round; transform-origin: 103.72px 270.268px;"/>
    <path fill="#000" stroke="#fff" stroke-miterlimit="10" d="M 133.771 267.275 C 134.16 271.269 134.012 275.133 130.042 275.603 C 126.072 276.072 125.184 272.33 124.795 268.336 C 124.406 264.342 124.38 260.499 128.523 260.009 C 132.494 259.54 133.382 263.281 133.771 267.275 Z M 141.93 281.122 L 139.133 252.408 L 132.573 253.183 L 132.851 256.035 C 130.73 253.977 128.738 253.251 125.976 253.577 C 123.387 253.883 121.062 255.12 119.676 257.015 C 117.364 260.174 117.562 263.998 118.062 269.131 C 118.562 274.266 119.123 278.239 121.973 280.596 C 123.693 282.124 126.029 282.81 128.619 282.503 C 131.209 282.197 133.206 281.191 134.71 278.706 L 135.007 281.748 C 135.303 284.791 134.219 287.997 130.075 288.487 C 127.831 288.752 126.203 288.175 124.501 286.837 L 120.822 292.081 C 123.88 294.797 126.888 295.211 131.032 294.721 C 138.473 294.034 142.615 288.158 141.93 281.122 Z" style="stroke-width: 2px; stroke-linejoin: round; stroke-linecap: round; transform-origin: 129.885px 277.328px;"/>
</svg>