<svg width="48" height="48"  xmlns="http://www.w3.org/2000/svg" xml:space="preserve" viewBox="0 0 30 30">
  <path fill="#09a59a" stroke="#fff" stroke-miterlimit="10" stroke-width=".75" d="M10.4 14.9c0 2.6-.3 4.5-2.6 4.5-2.3 0-2.6-2-2.6-4.5s.3-4.5 2.6-4.5c2.3 0 2.6 2 2.6 4.5zm3.9 0c0-2.3 0-5-1.6-6.6-.9-.9-2.3-1.4-3.8-1.4-1.6 0-2.8.4-3.8 1.6V1.3H1.2v21.4H5v-1.5c1.1 1.2 2.3 1.7 3.9 1.7 1.5 0 2.9-.5 3.8-1.4 1.6-1.5 1.6-4.2 1.6-6.6z"/>
  <path fill="#000" stroke="#fff" stroke-miterlimit="10" stroke-width=".75"
        d="M24.9 14.5c0 2.1-.3 4.1-2.6 4.1s-2.6-2-2.6-4.1c0-2.1.2-4.1 2.6-4.1 2.3 0 2.6 2 2.6 4.1zm3.9 7.7V7.1H25v1.5c-1.1-1.2-2.2-1.7-3.8-1.7-1.5 0-2.9.5-3.8 1.4-1.5 1.5-1.6 3.5-1.6 6.2s.1 4.8 1.6 6.2c.9.9 2.2 1.4 3.7 1.4s2.7-.4 3.7-1.6v1.6c0 1.6-.8 3.2-3.2 3.2-1.3 0-2.2-.4-3.1-1.2l-2.4 2.5c1.6 1.6 3.3 2 5.7 2 4.3.1 7-2.7 7-6.4z"/>
</svg>