<svg version="1.1" id="Layer_1" xmlns="http://www.w3.org/2000/svg" xmlns:xlink="http://www.w3.org/1999/xlink" x="0px" y="0px"
	 width="48" height="48"  viewBox="0 -100 1000 1000" enable-background="new 0 0 800 800" xml:space="preserve">
<path opacity="1.000000" stroke="none"
	d="
M225.000000,855.000000 
	C150.342896,855.000000 75.685791,855.000000 1.021519,855.000000 
	C1.014346,570.379333 1.014346,285.758728 1.014346,1.069041 
	C380.238708,1.069041 759.477478,1.069041 1138.858154,1.069041 
	C1138.858154,285.666626 1138.858154,570.333313 1138.858154,855.000000 
	C1069.235352,855.000000 999.577393,855.000000 929.421021,854.590454 
	C925.469666,833.335449 922.533997,812.388428 918.470337,791.662720 
	C904.196472,718.862000 889.699402,646.104004 874.945007,573.399170 
	C868.335571,540.829773 863.105347,507.983673 853.257507,476.068481 
	C841.030579,436.443115 827.407715,397.668945 800.673035,364.994598 
	C800.044189,364.226105 799.476257,363.377930 799.036072,362.489563 
	C794.336670,353.004364 789.668884,343.503540 784.998413,334.001526 
	C785.004395,333.996094 785.022034,333.981049 785.366699,333.906006 
	C794.927002,343.450317 804.203003,353.012756 813.332581,362.713043 
	C817.889282,367.554443 823.364014,369.438660 829.910461,369.311462 
	C836.946899,369.174713 842.956909,366.500122 848.151367,362.167999 
	C857.484192,354.384308 866.605713,346.342468 875.698486,338.276550 
	C906.856873,310.636932 937.940430,282.912933 969.108276,255.283981 
	C976.953674,248.329300 982.422546,239.832687 984.956787,229.794083 
	C989.265930,212.724518 993.456177,195.598236 996.820923,178.325256 
	C999.583069,164.145630 1001.659851,149.770462 1002.940613,135.384048 
	C1003.950378,124.040863 1000.699829,121.743652 989.437561,123.231667 
	C988.778442,123.318741 988.106201,123.409981 987.478333,123.615997 
	C970.449585,129.203949 952.806763,133.415421 936.514587,140.662674 
	C882.579102,164.654938 829.081177,189.635376 775.519714,214.461761 
	C753.229492,224.793549 730.035828,233.495926 710.447754,248.965515 
	C709.712158,249.546448 708.669739,249.944992 707.733032,250.033432 
	C696.795898,251.066071 685.862305,252.718231 674.907532,252.885162 
	C610.793762,253.862274 546.614258,250.766098 482.584198,256.895599 
	C453.076202,259.720337 423.457672,261.378540 393.907166,263.785675 
	C390.196869,264.087891 388.087402,263.211456 386.411377,259.909271 
	C379.821930,246.926392 370.149048,236.844299 357.301422,229.905838 
	C329.231720,214.746582 303.597839,195.887741 277.759460,177.365356 
	C233.644455,145.741287 190.400604,112.866364 144.047913,84.471741 
	C133.264465,77.866051 122.342018,71.476646 111.335342,65.249672 
	C103.744804,60.955357 98.842667,63.035339 95.910805,71.305084 
	C95.468559,72.552498 95.112289,73.848038 94.883110,75.150665 
	C92.276550,89.966415 95.257927,104.345390 98.639381,118.613449 
	C107.524864,156.105728 124.251953,190.140701 147.478973,220.533951 
	C176.800339,258.901825 207.557938,296.173767 237.835251,333.806427 
	C240.615082,337.261566 244.172241,340.221741 247.776215,342.853333 
	C253.400940,346.960571 256.426636,346.642181 261.393860,341.775452 
	C269.130371,334.195496 276.678375,326.423553 284.356140,318.783081 
	C286.651459,316.498901 289.113159,314.381927 291.498627,312.188354 
	C287.250275,323.537537 283.205566,334.802399 275.394775,344.076233 
	C262.700134,359.148712 252.856415,375.910400 246.959534,394.686035 
	C241.485245,412.116241 236.507019,429.732330 232.119110,447.466705 
	C225.014084,476.182526 220.335724,505.513763 209.968903,533.391479 
	C208.212708,538.114136 206.599854,542.890015 204.698807,548.269287 
	C214.178070,546.551270 222.835785,545.071472 231.456818,543.402100 
	C252.847977,539.259949 271.002197,545.403748 284.696289,562.029236 
	C310.576691,593.449707 300.453125,641.608826 257.090759,660.734253 
	C255.164032,661.584045 252.891373,661.966064 250.769135,662.006714 
	C230.989960,662.385864 213.460251,657.580872 201.544296,640.174988 
	C201.075241,639.489868 200.580414,638.803955 199.997314,638.218262 
	C196.553864,634.760132 190.187180,633.181396 186.698853,635.018555 
	C182.013885,637.485962 181.764435,641.988464 182.350830,646.316406 
	C183.039764,651.400940 184.140274,656.491577 185.667969,661.390686 
	C196.046890,694.674011 212.864166,724.205872 237.427887,749.133606 
	C242.848282,754.634338 246.553741,761.021606 247.683304,768.689209 
	C249.170975,778.787415 247.820831,788.689270 244.311172,798.171509 
	C239.003998,812.510254 233.106354,826.631287 227.856842,840.990112 
	C226.238541,845.416565 225.915909,850.316711 225.000000,855.000000 
M205.193115,574.746216 
	C196.683868,587.645325 194.840042,601.558594 199.052887,616.307983 
	C205.238892,637.965576 227.219925,652.986694 247.499451,649.520630 
	C273.768372,645.030701 290.112579,619.990845 283.806458,593.192383 
	C279.448242,574.671936 268.172729,561.794434 249.445587,557.336731 
	C231.480545,553.060364 216.743347,559.462280 205.193115,574.746216 
z"/>
<path fill="#EDB318" opacity="1.000000" stroke="none" 
	d="
M225.468658,855.000000 
	C225.915909,850.316711 226.238541,845.416565 227.856842,840.990112 
	C233.106354,826.631287 239.003998,812.510254 244.311172,798.171509 
	C247.820831,788.689270 249.170975,778.787415 247.683304,768.689209 
	C246.553741,761.021606 242.848282,754.634338 237.427887,749.133606 
	C212.864166,724.205872 196.046890,694.674011 185.667969,661.390686 
	C184.140274,656.491577 183.039764,651.400940 182.350830,646.316406 
	C181.764435,641.988464 182.013885,637.485962 186.698853,635.018555 
	C190.187180,633.181396 196.553864,634.760132 199.997314,638.218262 
	C200.580414,638.803955 201.075241,639.489868 201.544296,640.174988 
	C213.460251,657.580872 230.989960,662.385864 250.769135,662.006714 
	C252.891373,661.966064 255.164032,661.584045 257.090759,660.734253 
	C300.453125,641.608826 310.576691,593.449707 284.696289,562.029236 
	C271.002197,545.403748 252.847977,539.259949 231.456818,543.402100 
	C222.835785,545.071472 214.178070,546.551270 204.698807,548.269287 
	C206.599854,542.890015 208.212708,538.114136 209.968903,533.391479 
	C220.335724,505.513763 225.014084,476.182526 232.119110,447.466705 
	C236.507019,429.732330 241.485245,412.116241 246.959534,394.686035 
	C252.856415,375.910400 262.700134,359.148712 275.394775,344.076233 
	C283.205566,334.802399 287.250275,323.537537 291.498627,312.188354 
	C289.113159,314.381927 286.651459,316.498901 284.356140,318.783081 
	C276.678375,326.423553 269.130371,334.195496 261.393860,341.775452 
	C256.426636,346.642181 253.400940,346.960571 247.776215,342.853333 
	C244.172241,340.221741 240.615082,337.261566 237.835251,333.806427 
	C207.557938,296.173767 176.800339,258.901825 147.478973,220.533951 
	C124.251953,190.140701 107.524864,156.105728 98.639381,118.613449 
	C95.257927,104.345390 92.276550,89.966415 94.883110,75.150665 
	C95.112289,73.848038 95.468559,72.552498 95.910805,71.305084 
	C98.842667,63.035339 103.744804,60.955357 111.335342,65.249672 
	C122.342018,71.476646 133.264465,77.866051 144.047913,84.471741 
	C190.400604,112.866364 233.644455,145.741287 277.759460,177.365356 
	C303.597839,195.887741 329.231720,214.746582 357.301422,229.905838 
	C370.149048,236.844299 379.821930,246.926392 386.411377,259.909271 
	C388.087402,263.211456 390.196869,264.087891 393.907166,263.785675 
	C423.457672,261.378540 453.076202,259.720337 482.584198,256.895599 
	C546.614258,250.766098 610.793762,253.862274 674.907532,252.885162 
	C685.862305,252.718231 696.795898,251.066071 707.733032,250.033432 
	C708.669739,249.944992 709.712158,249.546448 710.447754,248.965515 
	C730.035828,233.495926 753.229492,224.793549 775.519714,214.461761 
	C829.081177,189.635376 882.579102,164.654938 936.514587,140.662674 
	C952.806763,133.415421 970.449585,129.203949 987.478333,123.615997 
	C988.106201,123.409981 988.778442,123.318741 989.437561,123.231667 
	C1000.699829,121.743652 1003.950378,124.040863 1002.940613,135.384048 
	C1001.659851,149.770462 999.583069,164.145630 996.820923,178.325256 
	C993.456177,195.598236 989.265930,212.724518 984.956787,229.794083 
	C982.422546,239.832687 976.953674,248.329300 969.108276,255.283981 
	C937.940430,282.912933 906.856873,310.636932 875.698486,338.276550 
	C866.605713,346.342468 857.484192,354.384308 848.151367,362.167999 
	C842.956909,366.500122 836.946899,369.174713 829.910461,369.311462 
	C823.364014,369.438660 817.889282,367.554443 813.332581,362.713043 
	C804.203003,353.012756 794.927002,343.450317 785.428406,333.676880 
	C784.876038,333.523407 784.606750,333.523956 784.337402,333.524506 
	C784.555725,333.685333 784.774109,333.846161 784.992432,334.006989 
	C789.668884,343.503540 794.336670,353.004364 799.036072,362.489563 
	C799.476257,363.377930 800.044189,364.226105 800.673035,364.994598 
	C827.407715,397.668945 841.030579,436.443115 853.257507,476.068481 
	C863.105347,507.983673 868.335571,540.829773 874.945007,573.399170 
	C889.699402,646.104004 904.196472,718.862000 918.470337,791.662720 
	C922.533997,812.388428 925.469666,833.335449 928.961304,854.590454 
	C694.645752,855.000000 460.291534,855.000000 225.468658,855.000000 
M585.267212,668.193787 
	C585.149658,665.363403 585.398315,662.458313 584.839478,659.717896 
	C583.620544,653.740051 583.472595,646.833740 580.246094,642.110962 
	C571.218506,628.896790 559.151184,618.899841 542.778625,615.901001 
	C534.124756,614.315979 525.336853,613.006042 516.563232,612.617615 
	C491.290924,611.498779 466.345276,613.576843 442.198761,621.910034 
	C432.675873,625.196533 426.779144,631.668823 424.877808,641.435974 
	C418.753601,672.895935 429.294830,699.166504 452.165161,720.138184 
	C469.891510,736.393066 492.502808,741.148193 516.089600,741.631348 
	C537.117920,742.062012 555.193604,734.926636 570.633362,720.793457 
	C571.983215,719.557861 573.755859,718.674866 574.805481,717.242249 
	C577.385742,713.720459 581.181335,710.202881 581.772827,706.274780 
	C583.622681,693.988647 584.216431,681.513367 585.267212,668.193787 
M668.165710,416.972626 
	C641.531738,413.935883 622.042236,431.787811 619.136414,455.209381 
	C615.842163,481.761414 632.155334,507.891937 657.326172,517.096313 
	C688.608521,528.535522 718.280334,507.659149 718.082153,474.349915 
	C717.915405,446.325867 697.656555,422.634918 668.165710,416.972626 
M408.888397,473.887024 
	C405.654785,452.265839 394.612030,436.073669 374.818237,426.574463 
	C345.822021,412.658936 314.164642,429.064911 310.128571,459.758545 
	C306.568451,486.832184 324.135345,514.791138 350.254395,522.764099 
	C368.242157,528.254944 384.632233,525.247498 397.749146,510.946686 
	C407.074524,500.779694 409.876007,488.299011 408.888397,473.887024 
M755.808899,680.860229 
	C765.656433,681.526978 775.030151,679.749573 783.859558,675.314453 
	C821.614685,656.349670 829.840271,601.861755 799.594238,571.163269 
	C781.921021,553.225708 756.463623,548.921814 734.972778,560.238220 
	C711.234131,572.738220 698.393127,600.033386 703.106750,629.407471 
	C707.234131,655.128418 726.857971,677.723083 755.808899,680.860229 
M452.547791,526.992920 
	C447.746277,531.092224 447.110840,533.354187 450.298309,538.500671 
	C452.016052,541.274109 454.238617,543.966553 456.813629,545.937378 
	C468.174500,554.632751 481.158905,559.628052 495.376709,560.676147 
	C509.822021,561.741089 521.315186,548.117798 518.632996,533.808960 
	C517.290771,526.648560 513.203491,522.101624 505.860046,521.010559 
	C498.480499,519.914001 490.982361,519.597961 483.530823,519.007568 
	C472.569214,518.138977 462.394775,520.492188 452.547791,526.992920 
z"/>
<path fill="#D11126" opacity="1.000000" stroke="none" 
	d="
M205.409851,574.456665 
	C216.743347,559.462280 231.480545,553.060364 249.445587,557.336731 
	C268.172729,561.794434 279.448242,574.671936 283.806458,593.192383 
	C290.112579,619.990845 273.768372,645.030701 247.499451,649.520630 
	C227.219925,652.986694 205.238892,637.965576 199.052887,616.307983 
	C194.840042,601.558594 196.683868,587.645325 205.409851,574.456665 
z"/>
<path fill="#030100" opacity="1.000000" stroke="none" 
	d="
M585.282104,668.652588 
	C584.216431,681.513367 583.622681,693.988647 581.772827,706.274780 
	C581.181335,710.202881 577.385742,713.720459 574.805481,717.242249 
	C573.755859,718.674866 571.983215,719.557861 570.633362,720.793457 
	C555.193604,734.926636 537.117920,742.062012 516.089600,741.631348 
	C492.502808,741.148193 469.891510,736.393066 452.165161,720.138184 
	C429.294830,699.166504 418.753601,672.895935 424.877808,641.435974 
	C426.779144,631.668823 432.675873,625.196533 442.198761,621.910034 
	C466.345276,613.576843 491.290924,611.498779 516.563232,612.617615 
	C525.336853,613.006042 534.124756,614.315979 542.778625,615.901001 
	C559.151184,618.899841 571.218506,628.896790 580.246094,642.110962 
	C583.472595,646.833740 583.620544,653.740051 584.839478,659.717896 
	C585.398315,662.458313 585.149658,665.363403 585.282104,668.652588 
M562.431946,648.199707 
	C557.934021,638.022278 550.266174,632.287109 539.339905,629.599609 
	C528.553589,626.946594 518.091919,628.204041 507.667969,630.123291 
	C480.746246,635.079956 462.675964,650.473999 454.564789,676.935913 
	C452.123474,684.900513 452.882202,692.458496 458.200165,699.135254 
	C471.028473,715.241577 487.551636,724.867981 508.328400,724.905701 
	C525.099487,724.936157 540.198669,718.572327 553.624573,708.649353 
	C561.159424,703.080444 565.472351,695.314026 567.103455,686.044678 
	C569.361938,673.210388 567.635620,660.866272 562.431946,648.199707 
z"/>
<path fill="#020201" opacity="1.000000" stroke="none" 
	d="
M668.621338,417.007629 
	C697.656555,422.634918 717.915405,446.325867 718.082153,474.349915 
	C718.280334,507.659149 688.608521,528.535522 657.326172,517.096313 
	C632.155334,507.891937 615.842163,481.761414 619.136414,455.209381 
	C622.042236,431.787811 641.531738,413.935883 668.621338,417.007629 
M635.330688,459.568176 
	C635.974854,460.911041 636.486389,462.339111 637.285583,463.582336 
	C641.162964,469.613922 648.619385,472.521301 656.028564,470.985107 
	C662.547729,469.633423 668.045654,463.960052 669.097229,457.499420 
	C670.258667,450.363708 667.261658,443.553864 661.117249,440.082947 
	C654.806274,436.518005 648.273376,436.545319 642.235474,440.511597 
	C635.719055,444.792328 633.602356,451.163544 635.330688,459.568176 
z"/>
<path fill="#020201" opacity="1.000000" stroke="none" 
	d="
M408.924957,474.347107 
	C409.876007,488.299011 407.074524,500.779694 397.749146,510.946686 
	C384.632233,525.247498 368.242157,528.254944 350.254395,522.764099 
	C324.135345,514.791138 306.568451,486.832184 310.128571,459.758545 
	C314.164642,429.064911 345.822021,412.658936 374.818237,426.574463 
	C394.612030,436.073669 405.654785,452.265839 408.924957,474.347107 
M352.159088,443.062653 
	C350.951569,442.517853 349.782593,441.854248 348.530243,441.447418 
	C340.291962,438.770874 331.065125,442.543701 327.293121,450.078491 
	C323.696014,457.263947 325.896545,466.089325 332.511078,471.005341 
	C340.128143,476.666473 351.222443,475.095276 357.019745,467.534363 
	C362.785278,460.014862 361.095825,450.336639 352.159088,443.062653 
z"/>
<path fill="#040200" opacity="1.000000" stroke="none" 
	d="
M755.351990,680.835327 
	C726.857971,677.723083 707.234131,655.128418 703.106750,629.407471 
	C698.393127,600.033386 711.234131,572.738220 734.972778,560.238220 
	C756.463623,548.921814 781.921021,553.225708 799.594238,571.163269 
	C829.840271,601.861755 821.614685,656.349670 783.859558,675.314453 
	C775.030151,679.749573 765.656433,681.526978 755.351990,680.835327 
M756.966614,667.841492 
	C770.496399,668.836426 781.802368,664.099182 791.022400,654.342285 
	C810.223022,634.023743 809.451172,598.609375 789.467834,579.052002 
	C774.316223,564.223328 752.254700,562.658081 735.945007,576.201233 
	C719.103516,590.186035 713.990112,608.893799 718.524292,629.778137 
	C722.911072,649.983521 734.920776,663.646729 756.966614,667.841492 
z"/>
<path fill="#020200" opacity="1.000000" stroke="none" 
	d="
M452.858734,526.797729 
	C462.394775,520.492188 472.569214,518.138977 483.530823,519.007568 
	C490.982361,519.597961 498.480499,519.914001 505.860046,521.010559 
	C513.203491,522.101624 517.290771,526.648560 518.632996,533.808960 
	C521.315186,548.117798 509.822021,561.741089 495.376709,560.676147 
	C481.158905,559.628052 468.174500,554.632751 456.813629,545.937378 
	C454.238617,543.966553 452.016052,541.274109 450.298309,538.500671 
	C447.110840,533.354187 447.746277,531.092224 452.858734,526.797729 
z"/>
<path fill="#000000" opacity="1.000000" stroke="none"
	d="
M784.998413,334.001526
	C784.774109,333.846161 784.555725,333.685333 784.337402,333.524506
	C784.606750,333.523956 784.876038,333.523407 785.083740,333.751953
	C785.022034,333.981049 785.004395,333.996094 784.998413,334.001526
z"/>
<path fill="#DB3B4F" opacity="1.000000" stroke="none" 
	d="
M562.611694,648.534851 
	C567.635620,660.866272 569.361938,673.210388 567.103455,686.044678 
	C565.472351,695.314026 561.159424,703.080444 553.624573,708.649353 
	C540.198669,718.572327 525.099487,724.936157 508.328400,724.905701 
	C487.551636,724.867981 471.028473,715.241577 458.200165,699.135254 
	C452.882202,692.458496 452.123474,684.900513 454.564789,676.935913 
	C462.675964,650.473999 480.746246,635.079956 507.667969,630.123291 
	C518.091919,628.204041 528.553589,626.946594 539.339905,629.599609 
	C550.266174,632.287109 557.934021,638.022278 562.611694,648.534851 
z"/>
<path fill="#FDFDFD" opacity="1.000000" stroke="none" 
	d="
M635.210938,459.166321 
	C633.602356,451.163544 635.719055,444.792328 642.235474,440.511597 
	C648.273376,436.545319 654.806274,436.518005 661.117249,440.082947 
	C667.261658,443.553864 670.258667,450.363708 669.097229,457.499420 
	C668.045654,463.960052 662.547729,469.633423 656.028564,470.985107 
	C648.619385,472.521301 641.162964,469.613922 637.285583,463.582336 
	C636.486389,462.339111 635.974854,460.911041 635.210938,459.166321 
z"/>
<path fill="#FDFDFD" opacity="1.000000" stroke="none" 
	d="
M352.487152,443.255310 
	C361.095825,450.336639 362.785278,460.014862 357.019745,467.534363 
	C351.222443,475.095276 340.128143,476.666473 332.511078,471.005341 
	C325.896545,466.089325 323.696014,457.263947 327.293121,450.078491 
	C331.065125,442.543701 340.291962,438.770874 348.530243,441.447418 
	C349.782593,441.854248 350.951569,442.517853 352.487152,443.255310 
z"/>
<path fill="#D11126" opacity="1.000000" stroke="none" 
	d="
M756.530579,667.786987 
	C734.920776,663.646729 722.911072,649.983521 718.524292,629.778137 
	C713.990112,608.893799 719.103516,590.186035 735.945007,576.201233 
	C752.254700,562.658081 774.316223,564.223328 789.467834,579.052002 
	C809.451172,598.609375 810.223022,634.023743 791.022400,654.342285 
	C781.802368,664.099182 770.496399,668.836426 756.530579,667.786987 
z"/>
</svg>