<svg width="10" height="11" viewBox="0 0 10 11" fill="none" xmlns="http://www.w3.org/2000/svg">
<path id="Union" fill-rule="evenodd" clip-rule="evenodd" d="M9.00007 4.79758L8.00007 4.79758L6.55012 4.79519L1.00007 4.79519C0.450071 4.79519 7.08997e-05 4.34519 7.08997e-05 3.79519C7.08997e-05 3.24519 0.450071 2.79519 1.00007 2.79519L6.55012 2.79519L5.41248 1.70759C5.01248 1.32759 5.01247 0.687584 5.40247 0.297584C5.78247 -0.0924164 6.4225 -0.102426 6.8125 0.287574L9.70002 3.08519C9.89002 3.27519 10.0001 3.53519 10.0001 3.79519C10.0001 4.05519 9.89997 4.21282 9.70002 4.5052C9.50007 4.79758 9.00007 4.79758 9.00007 4.79758ZM1 5.79759L2 5.79759L3.44995 5.79998L9 5.79997C9.55 5.79997 10 6.24997 10 6.79997C10 7.34998 9.55 7.79997 9 7.79997L3.44995 7.79998L4.58759 8.88758C4.98759 9.26758 4.9876 9.90759 4.5976 10.2976C4.2176 10.6876 3.57757 10.6976 3.18757 10.3076L0.300049 7.50998C0.110049 7.31998 2.24536e-08 7.05998 0 6.79998C-2.24536e-08 6.53998 0.100098 6.38235 0.300049 6.08997C0.5 5.79759 1 5.79759 1 5.79759Z" fill="#627594"/>
</svg>
