<svg xmlns="http://www.w3.org/2000/svg" viewBox="0 0 225 225" fill="#09a59a">
  <g id="Layer_2" data-name="Layer 2">
    <g id="Layer_1-2" data-name="Layer 1">
      <path d="M145.7 111.8 135.3 130l-6.2 10.4H96.6c-1.3-2.2-2.6-4.5-4-6.6-2.4-4-4.5-8.4-7.2-12.3-2.1-3-3.5-6.5-5.3-9.8 5.7-9.2 10.5-19 16.4-28h32.8c5.7 9 10.7 18.7 16.4 28.1Zm34-59.3c-1 3.2-3.1 5.6-4.6 8.3l-4.3 8c-1.5 2.7-3.3 5.3-5 8h-65.2c4.2-8.5 9.4-16.1 13.8-24.3ZM109 48.2c-2.2 3.8-4.3 7.7-6.7 11.4-2.1 3.6-4 7.4-6.3 10.9s-4.1 7.8-6.5 11.5c-2.7 4.3-5 9-7.8 13.2-2 3-3.4 6.3-5.2 9.6-1.4-.5-1.8-2-2.5-3L66.5 88c-1.4-2.5-3-4.8-4.5-7l4.7-8.3c2.2-3.9 4.6-7.6 6.8-11.4l3.5-6c2.6-4.7 5.2-9.3 8.1-13.8 1.6-2.4 2.6-5.2 4-7.7l5.7-9.6c5.1 8 9.5 16.1 14.2 24ZM28.1 83.8H56l3.4 5.9c2.5 4.3 5 8.6 7.7 12.9 1.2 2 2.1 4 3.2 6.1 3.2 5.8 6.7 11.4 9.9 17.2 2.4 4.5 5.1 8.8 7.8 13.2a6.8 6.8 0 0 1 .3 1c-3 .6-18.9.7-27.7.3l-3-5.4c-3-5.8-6.6-11.4-9.8-17.2-2.9-5-5.7-10.1-8.8-15l-6.4-10.9c-1.6-2.5-3-5.2-4.5-8ZM198 140.4h-28l-4.6-8.2-4.2-7.2-6.8-11.3-6.4-11.2c-2.6-4.5-5-9.2-7.9-13.6a52.6 52.6 0 0 1-2.5-5h27.5l1.6 2.3c2.8 4.5 5 9.2 8 13.5 1.6 2.3 2.6 5 4 7.4a361 361 0 0 0 7 11.7l3.4 6c3 5 5.9 10.2 8.9 15.6Zm-34.3 2.6c-2.7 3.8-5 8-7.3 12.2l-7.4 13c-2.1 3.8-4.3 7.7-6.7 11.4s-4.3 7.7-6.4 11.5c-1.5 2.7-3.1 5.2-4.8 8-.7-.5-1.5-.8-1.7-1.4-2.7-6.1-6.8-11.5-9.8-17.5-.9-1.7-2-3.2-3-4.9a8.4 8.4 0 0 0 1.5-1.5c1.3-2.5 2.4-5 3.8-7.4s3-4.5 4.4-6.8c1.1-1.9 2-4 3-5.8l8-13.5c2-4 4.5-7.6 6.4-11.5 1.7-3.4 4-6.6 6-10l14 24.2ZM46.5 178h63.8l13.9 23.9a3.5 3.5 0 0 1-.3.4l-.3.3H60.7L46.5 178Zm78.8-30.6c-5 8.3-9.2 16.3-14 23.6H46.2a27.5 27.5 0 0 1 2-4.2c3-4 5.1-8.6 7.6-12.9 1.3-2 2.5-4.2 3.8-6.5Zm39.8 55h-28l4.7-8.1 4-7c2.7-4.4 5.1-9 8-13.4 1.6-2.4 2.6-5.2 4-7.7 2.3-3.9 4.8-7.7 7-11.6 1.5-2.4 2.8-4.9 4-7.2h28.1a73 73 0 0 1-3.8 6.6c-1.6 2.3-2.5 5-4.1 7.2-3 4.3-5 9-7.9 13.2-1.6 2.4-2.6 5.2-4 7.7l-7 11.6c-1.5 2.4-2.8 4.8-4.1 7.3l-.9 1.4Zm52.2-90.4c-4.2 8-9 15.6-14 24.2l-6-11c-2-3.6-4-7.2-6.2-10.8q-3.8-6.2-7.4-12.6c-2.2-3.8-4.6-7.5-6.8-11.4-1.5-2.6-2.9-5.2-4.2-8a16.4 16.4 0 0 1-.8-2.2l13.6-23.5 5.6 9.1c1.1 1.9 2 3.9 3.2 5.8 2.8 4.4 4.9 9.2 7.6 13.6 4.2 6.5 7.4 13.4 11.8 19.8a60.5 60.5 0 0 1 3.6 7ZM56.6 76.8H29a38.6 38.6 0 0 1 2.5-5.4c3-4.5 5.4-9.2 8.2-13.8L46 46.8c2.1-3.9 4.5-7.5 6.5-11.5s4.7-7.7 6.6-11.8a7.7 7.7 0 0 1 1.6-1.8h27.5c-1.4 2-2 4.1-3.4 6a53 53 0 0 0-4 6.9c-2.2 4.3-5 8.4-7.3 12.6l-6 10.6C65 62 62.8 66.3 60 70.4a72.2 72.2 0 0 0-3.5 6.4Zm-16.3 90.3c-3.4-5.8-6.3-11.5-9.7-16.8-4.1-6.5-7.3-13.6-11.8-19.8-1.6-4.3-4.6-7.8-6.7-11.8-1.1-2.4-2.5-4.7-3.8-6.9l14-24.2 1 1.8L28 97l3.4 6 8 13.9c2.6 4.3 5 8.6 7.4 13 2 3.7 4 7.3 6.3 10.8a3 3 0 0 1 .2 3.6l-4.5 8.2c-1.3 2.3-2.9 4.5-4 7a86.5 86.5 0 0 1-4.5 7.5Zm61.2-145.3h63.8L178.7 45a2.3 2.3 0 0 1-.2.4l-.3.2h-63Z" />
    </g>
  </g>
</svg>
