<svg id="Layer_1" data-name="Layer 1" xmlns="http://www.w3.org/2000/svg" viewBox="0 0 153.09 144.76"><defs><style>.cls-1{fill:#fff;}</style></defs><path class="cls-1" d="M18.34,55V0H134.76V143.78H76.45a.6.6,0,0,1,.13-.09l5.8-3.4,9.69-5.7,13.08-7.69,1-.61c0-.12,0-.21,0-.3,0-1.39.06-2.79.06-4.19q0-7.6.07-15.21a.62.62,0,0,1,.34-.61c1-.58,2-1.18,3-1.77l10.82-6.36,12.2-7.18,1.87-1.11q.07-17.28.16-34.48l-.36-.23-3.88-2.25c-4.48-2.59-9-5.16-13.43-7.75l-10.5-6.06a.51.51,0,0,1-.31-.52q0-1.25.06-2.49,0-7.53.07-15c0-1,0-2,0-3.05,0-.14,0-.28,0-.43L76.43,0l-30,17.06c0,.16,0,.26,0,.36,0,3.6.05,7.21.06,10.82q0,5.14,0,10.29a.61.61,0,0,1-.25.44q-2.05,1.2-4.12,2.37l-7,4-6.82,3.91-7.48,4.29Z"/><path d="M18.34,55l2.43-1.36,7.48-4.29,6.82-3.91,7-4q2.07-1.17,4.12-2.37a.61.61,0,0,0,.25-.44q0-5.15,0-10.29c0-3.61,0-7.22-.06-10.82,0-.1,0-.2,0-.36L76.43,0l29.9,17.21c0,.15,0,.29,0,.43,0,1,0,2,0,3.05q0,7.53-.07,15.05,0,1.24-.06,2.49a.51.51,0,0,0,.31.52L117,44.85c4.47,2.59,8.95,5.16,13.43,7.75l3.88,2.25.36.23q-.09,17.2-.16,34.48l-1.87,1.11-12.2,7.18-10.82,6.36c-1,.59-2,1.19-3,1.77a.62.62,0,0,0-.34.61q0,7.6-.07,15.21c0,1.4,0,2.8-.06,4.19,0,.09,0,.18,0,.3l-1,.61-13.08,7.69-9.69,5.7-5.8,3.4a.6.6,0,0,0-.13.09h-.07a1.41,1.41,0,0,0-.23-.18l-3.83-2.21-8.45-4.89-7.26-4.21L47,126.73a.68.68,0,0,1-.39-.67q0-6.34.07-12.69v-7a.55.55,0,0,0-.32-.54l-3.64-2.09-10.29-6-12-6.93L18.56,89.8c0-.16,0-.29,0-.42,0-2.09-.05-4.19-.06-6.29,0-4.7,0-9.4-.06-14.1q0-4.41,0-8.82a3.93,3.93,0,0,0-.06-.48Zm58-22.23,25.2-14.48L76.42,3.79,51.11,18.18ZM23.18,56l25.1,14.52L73.41,56l-25-14.47Zm56.47,0a2.82,2.82,0,0,0,.25.17l4.38,2.53,8.93,5.17c3.71,2.15,7.43,4.29,11.14,6.45a.68.68,0,0,0,.76,0q2.4-1.41,4.82-2.8l10.16-5.85L129,56.49l.83-.5-25-14.46Zm-58,2.86v.52l.06,9.18c0,3.94.05,7.89.07,11.83,0,2.35,0,4.7,0,7.05,0,.15,0,.31,0,.5l24.73,14.29.13-.07V73.29ZM51.47,92.68l.2.14,10.82,6.3,13.59,7.93a.53.53,0,0,0,.6,0l10.41-6,13.24-7.62c.36-.2.71-.42,1.13-.68l-25-14.45ZM50,95.58c0,9.74-.07,19.39-.11,29l25,14.45v-.46q0-14.06,0-28.1a.7.7,0,0,0-.39-.68q-6.14-3.56-12.26-7.14l-9.91-5.77Zm53,28.84c0-9.61.09-19.19.14-28.84-.22.11-.35.17-.48.25l-7.47,4.3L86.67,105q-4.14,2.4-8.29,4.78a.63.63,0,0,0-.36.63q0,14.11,0,28.23a3.91,3.91,0,0,0,0,.41Zm3.48-22.08,24.9-14.64c0-9.61.08-19.19.12-28.83l-.39.19-4.85,2.81L116,67.72l-9.2,5.3a.7.7,0,0,0-.41.69q0,14.08,0,28.17ZM78.06,35.51V53.13l25-14.32V21.16ZM49.75,38.59,74.78,53V35.58l-25-14.43ZM78.06,58.87a2.75,2.75,0,0,0,0,.38q0,7.91,0,15.8a.59.59,0,0,0,.34.58l10.56,6.09,13.9,8a3.51,3.51,0,0,0,.32.15V84.63q0-5.41,0-10.85a.64.64,0,0,0-.38-.68c-.34-.16-.65-.37-1-.55l-6.87-4-8.68-5-8-4.6ZM50,89.78c.14-.07.26-.12.37-.19l6.84-4,9.14-5.28,8.11-4.69a.66.66,0,0,0,.4-.66q0-7.82,0-15.61c0-.12,0-.23,0-.44L50,73.28Z"/><path class="cls-1" d="M18.34,59.69a3.93,3.93,0,0,1,.06.48q0,4.41,0,8.82c0,4.7,0,9.4.06,14.1,0,2.1,0,4.2.06,6.29,0,.13,0,.26,0,.42l1.85,1.06,12,6.93,10.29,6,3.64,2.09a.55.55,0,0,1,.32.54v7q0,6.34-.07,12.69a.68.68,0,0,0,.39.67l9.62,5.56,7.26,4.21,8.45,4.89,3.83,2.21a1.41,1.41,0,0,1,.23.18h-58Z"/><path class="cls-1" d="M76.35,32.74,51.11,18.18,76.42,3.79l25.13,14.47Z"/><path class="cls-1" d="M23.18,56,48.36,41.53,73.41,56,48.28,70.49Z"/><path class="cls-1" d="M79.65,56,104.8,41.53l25,14.46-.83.5-8.92,5.14-10.16,5.85q-2.42,1.39-4.82,2.8a.68.68,0,0,1-.76,0c-3.71-2.16-7.43-4.3-11.14-6.45l-8.93-5.17L79.9,56.13A2.82,2.82,0,0,1,79.65,56Z"/><path class="cls-1" d="M21.62,58.82l25,14.47v28.83l-.13.07L21.78,87.9c0-.19,0-.35,0-.5,0-2.35,0-4.7,0-7.05,0-3.94,0-7.89-.07-11.83l-.06-9.18Z"/><path class="cls-1" d="M51.47,92.68l25-14.42,25,14.45c-.42.26-.77.48-1.13.68L87.09,101l-10.41,6a.53.53,0,0,1-.6,0L62.49,99.12l-10.82-6.3Z"/><path class="cls-1" d="M50,95.58l2.3,1.34,9.91,5.77q6.12,3.57,12.26,7.14a.7.7,0,0,1,.39.68q0,14.05,0,28.1v.46l-25-14.45C49.88,115,49.91,105.32,50,95.58Z"/><path class="cls-1" d="M102.94,124.42,78.06,139.05a3.91,3.91,0,0,1,0-.41q0-14.11,0-28.23a.63.63,0,0,1,.36-.63q4.16-2.37,8.29-4.78l8.46-4.87,7.47-4.3c.13-.08.26-.14.48-.25C103,105.23,103,114.81,102.94,124.42Z"/><path class="cls-1" d="M106.42,102.34v-.46q0-14.09,0-28.17a.7.7,0,0,1,.41-.69l9.2-5.3,10.17-5.85,4.85-2.81.39-.19c0,9.64-.08,19.22-.12,28.83Z"/><path class="cls-1" d="M78.06,35.51l25-14.35V38.81l-25,14.32Z"/><path class="cls-1" d="M49.75,38.59V21.15l25,14.43V53Z"/><path class="cls-1" d="M78.06,58.87l.24.09,8,4.6,8.68,5,6.87,4c.32.18.63.39,1,.55a.64.64,0,0,1,.38.68q0,5.43,0,10.85V89.9a3.51,3.51,0,0,1-.32-.15l-13.9-8L78.36,75.63a.59.59,0,0,1-.34-.58q0-7.9,0-15.8A2.75,2.75,0,0,1,78.06,58.87Z"/><path class="cls-1" d="M50,89.78V73.28L74.78,59c0,.21,0,.32,0,.44q0,7.8,0,15.61a.66.66,0,0,1-.4.66L66.3,80.36l-9.14,5.28-6.84,4C50.21,89.66,50.09,89.71,50,89.78Z"/></svg>