<svg id="Layer_1" data-name="Layer 1" xmlns="http://www.w3.org/2000/svg" viewBox="0 0 153.09 144.76"><defs><style>.cls-1{fill:#fff;}</style></defs><path class="cls-1" d="M123.84,143.66H28V27.33l.07.09c.26.43.51.86.76,1.29L30,30.66c.34.58.68,1.16,1,1.75s.77,1.33,1.15,2,.66,1.13,1,1.7l1.16,2c.32.57.65,1.14,1,1.7s.62,1.08.94,1.62l1,1.67,1.17,2c.32.56.64,1.12,1,1.67s.77,1.35,1.16,2l1,1.7,1.15,2,1,1.69,1.17,2,1,1.67,1.17,2c.32.56.64,1.12,1,1.68l1.16,2,1,1.69.92,1.6,1,1.69,1.15,2c.33.56.66,1.13,1,1.7l1.17,2,1,1.67,1.17,2,1,1.69,1.15,2c.33.56.65,1.13,1,1.7l1.17,2,1,1.67,1.15,2,1,1.74.93,1.6,1,1.69,1.15,2,1,1.7,1.14,2c.33.56.65,1.13,1,1.7l.9,1.54c.41.7.81,1.42,1.22,2.12s.92,1.58,1.37,2.37l1.39,2.42c.46.79.93,1.58,1.38,2.37s.93,1.62,1.39,2.42l1.64,2.82q.65,1.1,1.29,2.22L83.76,121l1.41.8,1.71,1c.49.28,1,.56,1.48.83l1.57.9,1.49.84,1.68,1,1.5.84,2,1.12,1.5.84,1.55.89,1.62.9,2,1.15,1.46.82,1.55.89,1.61.89,2,1.14,1.48.84,1.58.9,1.58.88,1.6.91,1.48.84,1.61.91,1.56.87,2,1.13Z"/><path class="cls-1" d="M28,27.16V1.1h97V143.66H123.9c0-.42,0-.84,0-1.26,0-.89,0-1.77,0-2.65s0-1.79.06-2.68,0-1.77.06-2.66,0-1.72.06-2.59,0-1.78,0-2.68,0-1.75.06-2.62,0-1.79.06-2.68,0-1.73.06-2.6,0-1.78.06-2.68,0-1.74,0-2.62,0-1.78.06-2.68,0-1.73.06-2.59,0-1.79.06-2.68,0-1.75,0-2.63,0-1.78.06-2.68,0-1.72.06-2.59,0-1.77.06-2.65,0-1.79.06-2.68a8.51,8.51,0,0,0,0-1,.9.9,0,0,0-.08-.36c-.14-.26-.29-.52-.44-.78-.47-.8-.93-1.61-1.39-2.42l-1.45-2.49c-.46-.81-.92-1.62-1.39-2.43L119,83.18c-.41-.71-.81-1.42-1.21-2.13-.54-.92-1.08-1.84-1.61-2.76l-1.62-2.83L113.14,73c-.46-.81-.92-1.62-1.39-2.43s-1-1.66-1.44-2.49-.92-1.62-1.39-2.42l-1.21-2.1-1.22-2.13c-.53-.92-1.07-1.84-1.61-2.76l-1.61-2.82c-.57-1-1.15-2-1.72-3l-1.13-2c-.41-.7-.82-1.39-1.22-2.09s-.8-1.42-1.21-2.13l-1.38-2.36c-.41-.71-.81-1.42-1.21-2.13s-1-1.68-1.46-2.52l-1.15-2-1.21-2.09-1.22-2.13c-.38-.66-.77-1.31-1.15-2S88.41,30,88,29.33l-1.21-2.09-1.22-2.13c-.45-.79-.92-1.58-1.37-2.37s-1-1.68-1.45-2.52c-.62-1.09-1.25-2.16-1.87-3.25L79.51,14.6,78.3,12.51l-1.22-2.13-1.6-2.76c-.55-.94-1.08-1.89-1.62-2.83s-1.15-2-1.73-3c-.12-.22-.26-.43-.39-.65h-.36c-2.55,0-5.1-.06-7.65.06H43.09l-.5.88L41.2,4.48c-.39.67-.76,1.34-1.15,2L38.49,9.14c-.46.81-.92,1.62-1.39,2.43L35.68,14c-.38.66-.75,1.32-1.13,2L33.4,18c-.47.8-.92,1.61-1.39,2.42-.38.66-.77,1.31-1.15,2s-.77,1.36-1.16,2l-1.23,2.12Z"/><path d="M28,27.16l.43-.68,1.23-2.12c.39-.67.77-1.35,1.16-2s.77-1.3,1.15-2c.47-.81.92-1.62,1.39-2.42l1.15-2c.38-.65.75-1.31,1.13-2l1.42-2.44c.47-.81.93-1.62,1.39-2.43l1.56-2.66c.39-.66.76-1.33,1.15-2l1.39-2.39.5-.88H63.73c2.55-.12,5.1,0,7.65-.06h.36c.13.22.27.43.39.65.58,1,1.15,2,1.73,3s1.07,1.89,1.62,2.83l1.6,2.76,1.22,2.13,1.21,2.09L80.88,17c.62,1.09,1.25,2.16,1.87,3.25.49.84,1,1.68,1.45,2.52s.92,1.58,1.37,2.37l1.22,2.13L88,29.33c.41.71.81,1.42,1.21,2.13s.77,1.3,1.15,2l1.22,2.13,1.21,2.09,1.15,2c.48.84,1,1.68,1.46,2.52s.8,1.42,1.21,2.13L98,46.65c.41.71.81,1.42,1.21,2.13s.81,1.39,1.22,2.09l1.13,2c.57,1,1.15,2,1.72,3l1.61,2.82c.54.92,1.08,1.84,1.61,2.76l1.22,2.13,1.21,2.1c.47.8.93,1.61,1.39,2.42s1,1.66,1.44,2.49.93,1.62,1.39,2.43l1.45,2.49,1.62,2.83c.53.92,1.07,1.84,1.61,2.76.4.71.8,1.42,1.21,2.13l1.21,2.09c.47.81.93,1.62,1.39,2.43l1.45,2.49c.46.81.92,1.62,1.39,2.42.15.26.3.52.44.78a.9.9,0,0,1,.08.36,8.51,8.51,0,0,1,0,1c-.1.89,0,1.79-.06,2.68s0,1.77-.06,2.65,0,1.73-.06,2.59,0,1.79-.06,2.68,0,1.76,0,2.63,0,1.79-.06,2.68,0,1.73-.06,2.59,0,1.79-.06,2.68,0,1.75,0,2.62,0,1.79-.06,2.68,0,1.74-.06,2.6,0,1.79-.06,2.68,0,1.75-.06,2.62,0,1.79,0,2.68,0,1.73-.06,2.59,0,1.78-.06,2.66,0,1.79-.06,2.68,0,1.76,0,2.65c0,.42,0,.84,0,1.26h-.06l-1.1-.63-2-1.13-1.56-.87-1.61-.91-1.48-.84-1.6-.91-1.58-.88-1.58-.9-1.48-.84-2-1.14-1.61-.89-1.55-.89-1.46-.82-2-1.15-1.62-.9-1.55-.89-1.5-.84-2-1.12-1.5-.84-1.68-1-1.49-.84-1.57-.9c-.5-.27-1-.55-1.48-.83l-1.71-1-1.41-.8-2.28-1.28q-.65-1.12-1.29-2.22l-1.64-2.82c-.46-.8-.92-1.62-1.39-2.42s-.92-1.58-1.38-2.37l-1.39-2.42c-.45-.79-.92-1.58-1.37-2.37s-.81-1.42-1.22-2.12l-.9-1.54c-.33-.57-.65-1.14-1-1.7l-1.14-2-1-1.7-1.15-2-1-1.69-.93-1.6-1-1.74-1.15-2-1-1.67-1.17-2c-.33-.57-.65-1.14-1-1.7l-1.15-2-1-1.69-1.17-2-1-1.67-1.17-2c-.32-.57-.65-1.14-1-1.7l-1.15-2-1-1.69L50,65.28l-1-1.69-1.16-2c-.33-.56-.65-1.12-1-1.68l-1.17-2-1-1.67-1.17-2-1-1.69-1.15-2-1-1.7c-.39-.67-.78-1.34-1.16-2s-.65-1.11-1-1.67l-1.17-2-1-1.67c-.32-.54-.63-1.08-.94-1.62s-.66-1.13-1-1.7l-1.16-2c-.32-.57-.65-1.13-1-1.7s-.76-1.33-1.15-2-.67-1.17-1-1.75l-1.12-1.95c-.25-.43-.5-.86-.76-1.29L28,27.33Zm54,87.23L94,93.65,55,26.14,43,46.85Q62.54,80.62,82.06,114.39ZM57.48,24a1,1,0,0,0,.05.16L96.47,91.65h8.38c2.67,0,5.35,0,8-.05,1.6,0,3.2,0,4.8,0h2.25c.09,0,.19,0,.27-.06Q100.72,57.75,81.26,24H75c-2,0-4,0-5.95,0s-3.94,0-5.91,0c-1.77.07-3.55,0-5.32,0ZM43.68,6.53l-12,20.72,9.5,16.43,12-20.7ZM79.42,20.8,69.93,4.33h-.37c-3,0-6,0-9,0-4.68.06-9.37,0-14.06,0h-.38l9.5,16.46H56c3.55,0,7.1,0,10.65,0,4.13-.07,8.26,0,12.39,0ZM96,96.55,84,117.46l4.75,2.7,4.75,2.67c1.58.89,3.15,1.8,4.74,2.68s3.15,1.8,4.76,2.68l5.28-9.47c-.13-.24-.27-.48-.39-.71l-1-1.93c-.39-.69-.78-1.39-1.16-2.09-.22-.38-.43-.77-.64-1.16l-1.09-1.94c-.23-.42-.46-.86-.7-1.29-.45-.81-.91-1.62-1.36-2.44-.36-.64-.7-1.28-1-1.92l-1.58-2.81c-.5-.9-1-1.8-1.49-2.7l-1.65-3Zm2.71-1.72c0,.1.07.18.11.24l.57,1c.24.42.47.86.71,1.29l1.14,2.06.66,1.19,1.11,2,.74,1.36c.35.62.7,1.24,1,1.86l.75,1.37,1.06,1.91c.25.44.48.88.72,1.32.36.65.73,1.29,1.08,1.94.24.42.47.86.71,1.29l1.44,2.59a3.87,3.87,0,0,0,.21.34H111l1.47-.05c1.12-.06,2.24,0,3.37,0,1.7-.08,3.4-.06,5.1-.08a1.08,1.08,0,0,0,.18,0l.19,0a.6.6,0,0,0,0-.12c0-.91,0-1.83.05-2.74s0-1.71.06-2.56c.06-1,0-2.08.06-3.12,0-.72,0-1.45,0-2.19.07-.91,0-1.84.06-2.76s0-1.67.06-2.51c.06-1,0-2,.06-3.08,0-.54,0-1.08,0-1.62,0-.16,0-.32,0-.48v-.46h-.4c-2.83,0-5.66,0-8.5,0s-5.65,0-8.48,0c-1.81.06-3.62,0-5.43,0Zm22.56,24.79h-.31c-.85,0-1.69,0-2.54,0-1.17.07-2.34,0-3.51.06-.69,0-1.39,0-2.08,0a.46.46,0,0,0-.32.05c.06.12.11.24.17.34l1,1.76c.51.91,1,1.83,1.52,2.75s1,1.8,1.49,2.69c.4.74.81,1.47,1.21,2.2l1.51,2.72,1.35,2.48c.06.09.1.2.23.25a.93.93,0,0,0,0-.14c0-.94,0-1.88,0-2.82s0-1.69,0-2.53,0-1.79.06-2.68,0-1.73.06-2.59,0-1.83.06-2.74c0-.52,0-1,0-1.56C121.24,119.84,121.23,119.75,121.22,119.62ZM105.7,129.76l12.55,7.09-.08-.19c-.19-.35-.39-.7-.58-1.06s-.43-.77-.65-1.16c-.35-.64-.72-1.29-1.08-1.93-.23-.43-.46-.87-.7-1.29l-1.36-2.45c-.36-.63-.7-1.28-1-1.92l-1.3-2.31-1.07-2c-.1-.19-.21-.38-.35-.61Z"/><path class="cls-1" d="M82.06,114.39Q62.5,80.58,43,46.85L55,26.14,94,93.65Z"/><path class="cls-1" d="M57.48,24h.33c1.77,0,3.55.05,5.32,0,2-.06,3.94,0,5.91,0s4,0,5.95,0h6.27q19.45,33.78,38.93,67.55c-.08.1-.18.06-.27.06h-2.25c-1.6,0-3.2,0-4.8,0-2.67.09-5.35,0-8,.05H96.47L57.53,24.2A1,1,0,0,1,57.48,24Z"/><path class="cls-1" d="M43.68,6.53,53.17,23l-12,20.7-9.5-16.43Z"/><path class="cls-1" d="M79.42,20.8H79c-4.13,0-8.26-.05-12.39,0-3.55.05-7.1,0-10.65,0h-.37L46.11,4.4h.38c4.69,0,9.38,0,14.06,0,3,0,6,0,9,0h.37Z"/><path class="cls-1" d="M96,96.55l.12.17,1.65,3c.49.9,1,1.8,1.49,2.7l1.58,2.81c.35.64.69,1.28,1,1.92.45.82.91,1.63,1.36,2.44.24.43.47.87.7,1.29l1.09,1.94c.21.39.42.78.64,1.16.38.7.77,1.4,1.16,2.09l1,1.93c.12.23.26.47.39.71L103,128.19c-1.61-.88-3.18-1.79-4.76-2.68s-3.16-1.79-4.74-2.68l-4.75-2.67L84,117.46Z"/><path class="cls-1" d="M98.66,94.83H99c1.81,0,3.62,0,5.43,0,2.83-.09,5.66,0,8.48,0s5.67,0,8.5,0h.4v.46c0,.16,0,.32,0,.48,0,.54,0,1.08,0,1.62-.06,1,0,2.06-.06,3.08,0,.84,0,1.68-.06,2.51s0,1.85-.06,2.76c0,.74,0,1.47,0,2.19-.06,1,0,2.08-.06,3.12-.06.85,0,1.71-.06,2.56s0,1.83-.05,2.74a.6.6,0,0,1,0,.12l-.19,0a1.08,1.08,0,0,1-.18,0c-1.7,0-3.4,0-5.1.08-1.13,0-2.25,0-3.37,0l-1.47.05h-.31a3.87,3.87,0,0,1-.21-.34l-1.44-2.59c-.24-.43-.47-.87-.71-1.29-.35-.65-.72-1.29-1.08-1.94-.24-.44-.47-.88-.72-1.32l-1.06-1.91-.75-1.37c-.34-.62-.69-1.24-1-1.86l-.74-1.36-1.11-2-.66-1.19-1.14-2.06c-.24-.43-.47-.87-.71-1.29l-.57-1C98.73,95,98.71,94.93,98.66,94.83Z"/><path class="cls-1" d="M121.22,119.62c0,.13,0,.22,0,.3,0,.52,0,1,0,1.56-.08.91,0,1.83-.06,2.74s0,1.73-.06,2.59,0,1.79-.06,2.68,0,1.69,0,2.53,0,1.88,0,2.82a.93.93,0,0,1,0,.14c-.13,0-.17-.16-.23-.25l-1.35-2.48-1.51-2.72c-.4-.73-.81-1.46-1.21-2.2-.5-.89-1-1.79-1.49-2.69s-1-1.84-1.52-2.75l-1-1.76c-.06-.1-.11-.22-.17-.34a.46.46,0,0,1,.32-.05c.69,0,1.39,0,2.08,0,1.17-.08,2.34,0,3.51-.06.85-.06,1.69,0,2.54,0Z"/><path class="cls-1" d="M105.7,129.76,110,122c.14.23.25.42.35.61l1.07,2,1.3,2.31c.35.64.69,1.29,1,1.92l1.36,2.45c.24.42.47.86.7,1.29.36.64.73,1.29,1.08,1.93.22.39.43.78.65,1.16s.39.71.58,1.06l.08.19Z"/></svg>