<?xml version="1.0" encoding="utf-8"?>
<svg viewBox="180 85 90 90"  xmlns="http://www.w3.org/2000/svg">
<rect x="1186.001" y="814.211" width="58.939" height="61.77" rx="1.357" stroke="#834df0" style="stroke-width: 3px; stroke-linejoin: round; transform-origin: 1215.47px 845.096px;" transform="matrix(0.990123093128, 0.140199005604, -0.375635057688, 0.956786096096, -990.983942396477, -714.597435891724)"/>
<path d="M 205.03 128.412 L 217.982 119.723 L 213.147 107.568 M 216.509 136.43 L 229.995 139.054" stroke-linecap="round" style="stroke-miterlimit: 24.16; stroke-dasharray: 3; stroke-linejoin: round; stroke-width: 2px; stroke: rgb(130, 84, 235); transform-origin: 225.151px 125.381px;"/>
<path fill="#09a59a" stroke="#fff" stroke-miterlimit="10" d="M 207.092 149.338 C 207.533 153.827 207.381 157.162 203.744 157.588 C 200.107 158.014 199.294 154.618 198.869 150.302 C 198.445 145.985 198.58 142.478 202.217 142.052 C 205.854 141.626 206.668 145.022 207.092 149.338 Z M 213.259 148.616 C 212.869 144.646 212.41 139.985 209.609 137.519 C 208.033 136.131 205.734 135.528 203.363 135.805 C 200.833 136.102 199.002 137.015 197.625 139.272 L 196.403 126.842 L 190.236 127.564 L 193.867 164.507 L 199.877 163.803 L 199.622 161.214 C 201.565 163.083 203.547 163.723 206.078 163.427 C 208.449 163.149 210.579 162.027 211.848 160.306 C 214.124 157.42 213.666 152.759 213.259 148.616 Z" style="stroke-linejoin: round; stroke-width: 2px; stroke-linecap: round; transform-origin: 204.074px 144.995px;"/>
<path d="M 245.892 129.537 L 236.216 119.914 L 247.519 109.811 M 229.466 134.988 L 213.563 135.348" stroke-linecap="round" style="stroke-miterlimit: 24.16; stroke-dasharray: 3; stroke-linejoin: round; stroke-width: 2px; stroke: rgb(130, 84, 235); transform-origin: 232.241px 122.705px;"/>
<path fill="#000" stroke="#fff" stroke-miterlimit="10" d="M 250.438 139.478 C 248.336 142.313 245.964 144.683 243.121 142.171 C 240.278 139.658 241.909 136.632 244.011 133.797 C 246.112 130.964 248.361 128.484 251.327 131.106 C 254.17 133.618 252.539 136.645 250.438 139.478 Z M 247.552 154.13 L 262.663 133.754 L 257.967 129.603 L 256.466 131.627 C 256.307 128.805 255.448 126.929 253.47 125.181 C 251.616 123.542 249.385 122.687 247.372 122.919 C 244.017 123.303 241.892 125.894 239.19 129.537 C 236.488 133.18 234.51 136.123 234.962 139.652 C 235.173 141.85 236.28 143.944 238.134 145.584 C 239.988 147.222 241.872 147.993 244.309 147.467 L 242.708 149.626 C 241.107 151.785 238.516 153.07 235.55 150.448 C 233.943 149.028 233.231 147.504 232.919 145.441 L 227.451 146.193 C 227.827 150.1 229.528 152.497 232.495 155.119 C 237.71 159.952 243.849 159.123 247.552 154.13 Z" style="stroke-linejoin: round; stroke-width: 2px; stroke-linecap: round; transform-origin: 249.496px 141.025px;"/>
</svg>
