<svg width="8" height="8" viewBox="0 0 8 8" fill="none" xmlns="http://www.w3.org/2000/svg">
<path id="Union" d="M3 3.05176e-05C2.44772 3.05176e-05 2 0.447746 2 1.00003C2 1.55232 2.44772 2.00003 3 2.00003H4.58579L0.292893 6.29292C-0.0976311 6.68345 -0.0976311 7.31661 0.292893 7.70714C0.683417 8.09766 1.31658 8.09766 1.70711 7.70714L6 3.41424V5.00003C6 5.55232 6.44772 6.00003 7 6.00003C7.55228 6.00003 8 5.55232 8 5.00003V1.00003C8 0.724967 7.88894 0.475842 7.70922 0.295048L7.70498 0.290806C7.6096 0.195981 7.49986 0.124349 7.38278 0.0759093C7.26488 0.027016 7.13559 3.05176e-05 7 3.05176e-05H3Z" fill="#259448"/>
</svg>
